<?xml version="1.0" encoding="utf-8" standalone="no"?>
<svg height="345.6pt" version="1.1" viewBox="0 0 576 345.6" width="576pt" xmlns="http://www.w3.org/2000/svg" xmlns:xlink="http://www.w3.org/1999/xlink">
	<defs>
		<style type="text/css">
			*{stroke-linecap:butt;stroke-linejoin:round;}
		</style>
	</defs>
	<g id="figure_1">
		<g id="patch_1">
			<path d="M 0 345.6 L 576 345.6 L 576 0 L 0 0 z" style="fill:none;" />
		</g>
		<g id="axes_1">
			<g id="patch_2">
				<path d="M 75.792188 302.45975 L 548.848041 302.45975 L 548.848041 43.74625 L 75.792188 43.74625 z" style="fill:none;" />
			</g>
			<g id="matplotlib.axis_1">
				<g id="xtick_1">
					<g id="line2d_1">
						<path clip-path="url(#p80ca59f66e)" d="M 82.184834 302.45975 L 82.184834 43.74625" style="fill:none;stroke:#444444;stroke-linecap:square;" />
					</g>
					<g id="line2d_2" />
					<g id="text_1">
						<text style="font-family:-apple-system,BlinkMacSystemFont,Segoe Ui,Roboto,Helvetica,Arial,sans-serif;font-size:13px;font-style:normal;font-weight:normal;" transform="translate(63.261709 315.518812)">Feb 19</text>
						<text style="font-family:-apple-system,BlinkMacSystemFont,Segoe Ui,Roboto,Helvetica,Arial,sans-serif;font-size:13px;font-style:normal;font-weight:normal;" transform="translate(64.767881 329.274844)">00:00</text>
					</g>
				</g>
				<g id="xtick_2">
					<g id="line2d_3">
						<path clip-path="url(#p80ca59f66e)" d="M 235.608354 302.45975 L 235.608354 43.74625" style="fill:none;stroke:#444444;stroke-linecap:square;" />
					</g>
					<g id="line2d_4" />
					<g id="text_2">
						<text style="font-family:-apple-system,BlinkMacSystemFont,Segoe Ui,Roboto,Helvetica,Arial,sans-serif;font-size:13px;font-style:normal;font-weight:normal;" transform="translate(215.838198 315.518812)">Feb 20</text>
						<text style="font-family:-apple-system,BlinkMacSystemFont,Segoe Ui,Roboto,Helvetica,Arial,sans-serif;font-size:13px;font-style:normal;font-weight:normal;" transform="translate(218.191401 329.274844)">00:00</text>
					</g>
				</g>
				<g id="xtick_3">
					<g id="line2d_5">
						<path clip-path="url(#p80ca59f66e)" d="M 389.031874 302.45975 L 389.031874 43.74625" style="fill:none;stroke:#444444;stroke-linecap:square;" />
					</g>
					<g id="line2d_6" />
					<g id="text_3">
						<text style="font-family:-apple-system,BlinkMacSystemFont,Segoe Ui,Roboto,Helvetica,Arial,sans-serif;font-size:13px;font-style:normal;font-weight:normal;" transform="translate(370.321015 315.518812)">Feb 21</text>
						<text style="font-family:-apple-system,BlinkMacSystemFont,Segoe Ui,Roboto,Helvetica,Arial,sans-serif;font-size:13px;font-style:normal;font-weight:normal;" transform="translate(371.614921 329.274844)">00:00</text>
					</g>
				</g>
				<g id="xtick_4">
					<g id="line2d_7">
						<path clip-path="url(#p80ca59f66e)" d="M 542.455394 302.45975 L 542.455394 43.74625" style="fill:none;stroke:#444444;stroke-linecap:square;" />
					</g>
					<g id="line2d_8" />
					<g id="text_4">
						<text style="font-family:-apple-system,BlinkMacSystemFont,Segoe Ui,Roboto,Helvetica,Arial,sans-serif;font-size:13px;font-style:normal;font-weight:normal;" transform="translate(522.948285 315.518812)">Feb 22</text>
						<text style="font-family:-apple-system,BlinkMacSystemFont,Segoe Ui,Roboto,Helvetica,Arial,sans-serif;font-size:13px;font-style:normal;font-weight:normal;" transform="translate(525.038441 329.274844)">00:00</text>
					</g>
				</g>
				<g id="xtick_5">
					<g id="line2d_9">
						<path clip-path="url(#p80ca59f66e)" d="M 158.896594 302.45975 L 158.896594 43.74625" style="fill:none;stroke:#b0b0b0;stroke-linecap:square;stroke-opacity:0.5;" />
					</g>
					<g id="line2d_10" />
					<g id="text_5">
						<text style="font-family:-apple-system,BlinkMacSystemFont,Segoe Ui,Roboto,Helvetica,Arial,sans-serif;font-size:13px;font-style:normal;font-weight:normal;text-anchor:middle;" transform="rotate(-0, 158.896594, 320.018812)" x="158.896594" y="320.018812">12:00</text>
					</g>
				</g>
				<g id="xtick_6">
					<g id="line2d_11">
						<path clip-path="url(#p80ca59f66e)" d="M 312.320114 302.45975 L 312.320114 43.74625" style="fill:none;stroke:#b0b0b0;stroke-linecap:square;stroke-opacity:0.5;" />
					</g>
					<g id="line2d_12" />
					<g id="text_6">
						<text style="font-family:-apple-system,BlinkMacSystemFont,Segoe Ui,Roboto,Helvetica,Arial,sans-serif;font-size:13px;font-style:normal;font-weight:normal;text-anchor:middle;" transform="rotate(-0, 312.320114, 320.018812)" x="312.320114" y="320.018812">12:00</text>
					</g>
				</g>
				<g id="xtick_7">
					<g id="line2d_13">
						<path clip-path="url(#p80ca59f66e)" d="M 465.743634 302.45975 L 465.743634 43.74625" style="fill:none;stroke:#b0b0b0;stroke-linecap:square;stroke-opacity:0.5;" />
					</g>
					<g id="line2d_14" />
					<g id="text_7">
						<text style="font-family:-apple-system,BlinkMacSystemFont,Segoe Ui,Roboto,Helvetica,Arial,sans-serif;font-size:13px;font-style:normal;font-weight:normal;text-anchor:middle;" transform="rotate(-0, 465.743634, 320.018812)" x="465.743634" y="320.018812">12:00</text>
					</g>
				</g>
			</g>
			<g id="matplotlib.axis_2">
				<g id="ytick_1">
					<g id="line2d_15">
						<path clip-path="url(#p80ca59f66e)" d="M 75.792188 298.417352 L 548.848041 298.417352" style="fill:none;stroke:#444444;stroke-linecap:square;" />
					</g>
					<g id="line2d_16" />
					<g id="text_8">
						<text style="font-family:-apple-system,BlinkMacSystemFont,Segoe Ui,Roboto,Helvetica,Arial,sans-serif;font-size:13px;font-style:normal;font-weight:normal;text-anchor:end;" transform="rotate(-0, 72.292188, 303.196883)" x="72.292188" y="303.196883">0</text>
					</g>
				</g>
				<g id="ytick_2">
					<g id="line2d_17">
						<path clip-path="url(#p80ca59f66e)" d="M 75.792188 257.993367 L 548.848041 257.993367" style="fill:none;stroke:#b0b0b0;stroke-linecap:square;stroke-opacity:0.5;" />
					</g>
					<g id="line2d_18" />
					<g id="text_9">
						<text style="font-family:-apple-system,BlinkMacSystemFont,Segoe Ui,Roboto,Helvetica,Arial,sans-serif;font-size:13px;font-style:normal;font-weight:normal;text-anchor:end;" transform="rotate(-0, 72.392188, 262.772898)" x="72.392188" y="262.772898">10 000</text>
					</g>
				</g>
				<g id="ytick_3">
					<g id="line2d_19">
						<path clip-path="url(#p80ca59f66e)" d="M 75.792188 217.569383 L 548.848041 217.569383" style="fill:none;stroke:#b0b0b0;stroke-linecap:square;stroke-opacity:0.5;" />
					</g>
					<g id="line2d_20" />
					<g id="text_10">
						<text style="font-family:-apple-system,BlinkMacSystemFont,Segoe Ui,Roboto,Helvetica,Arial,sans-serif;font-size:13px;font-style:normal;font-weight:normal;text-anchor:end;" transform="rotate(-0, 72.392188, 222.348914)" x="72.392188" y="222.348914">20 000</text>
					</g>
				</g>
				<g id="ytick_4">
					<g id="line2d_21">
						<path clip-path="url(#p80ca59f66e)" d="M 75.792188 177.145398 L 548.848041 177.145398" style="fill:none;stroke:#b0b0b0;stroke-linecap:square;stroke-opacity:0.5;" />
					</g>
					<g id="line2d_22" />
					<g id="text_11">
						<text style="font-family:-apple-system,BlinkMacSystemFont,Segoe Ui,Roboto,Helvetica,Arial,sans-serif;font-size:13px;font-style:normal;font-weight:normal;text-anchor:end;" transform="rotate(-0, 72.392188, 181.92493)" x="72.392188" y="181.92493">30 000</text>
					</g>
				</g>
				<g id="ytick_5">
					<g id="line2d_23">
						<path clip-path="url(#p80ca59f66e)" d="M 75.792188 136.721414 L 548.848041 136.721414" style="fill:none;stroke:#b0b0b0;stroke-linecap:square;stroke-opacity:0.5;" />
					</g>
					<g id="line2d_24" />
					<g id="text_12">
						<text style="font-family:-apple-system,BlinkMacSystemFont,Segoe Ui,Roboto,Helvetica,Arial,sans-serif;font-size:13px;font-style:normal;font-weight:normal;text-anchor:end;" transform="rotate(-0, 72.392188, 141.500945)" x="72.392188" y="141.500945">40 000</text>
					</g>
				</g>
				<g id="ytick_6">
					<g id="line2d_25">
						<path clip-path="url(#p80ca59f66e)" d="M 75.792188 96.29743 L 548.848041 96.29743" style="fill:none;stroke:#b0b0b0;stroke-linecap:square;stroke-opacity:0.5;" />
					</g>
					<g id="line2d_26" />
					<g id="text_13">
						<text style="font-family:-apple-system,BlinkMacSystemFont,Segoe Ui,Roboto,Helvetica,Arial,sans-serif;font-size:13px;font-style:normal;font-weight:normal;text-anchor:end;" transform="rotate(-0, 72.392188, 101.076961)" x="72.392188" y="101.076961">50 000</text>
					</g>
				</g>
				<g id="ytick_7">
					<g id="line2d_27">
						<path clip-path="url(#p80ca59f66e)" d="M 75.792188 55.873445 L 548.848041 55.873445" style="fill:none;stroke:#b0b0b0;stroke-linecap:square;stroke-opacity:0.5;" />
					</g>
					<g id="line2d_28" />
					<g id="text_14">
						<text style="font-family:-apple-system,BlinkMacSystemFont,Segoe Ui,Roboto,Helvetica,Arial,sans-serif;font-size:13px;font-style:normal;font-weight:normal;text-anchor:end;" transform="rotate(-0, 72.392188, 60.652977)" x="72.392188" y="60.652977">60 000</text>
					</g>
				</g>
				<g id="text_15">
					<text style="font-family:-apple-system,BlinkMacSystemFont,Segoe Ui,Roboto,Helvetica,Arial,sans-serif;font-size:13px;font-style:normal;font-weight:normal;text-anchor:middle;" transform="rotate(-90, 23.599063, 173.103)" x="23.599063" y="173.103">Demand [MW]</text>
				</g>
			</g>
			<g id="line2d_29">
				<path clip-path="url(#p80ca59f66e)" d="M 75.792187 298.417352" style="fill:none;stroke:#1f77b4;stroke-linecap:square;stroke-opacity:0;stroke-width:1.5;" />
			</g>
			<g id="line2d_30">
				<path clip-path="url(#p80ca59f66e)" d="M 75.792187 183.321279 L 76.431452 184.018867 L 77.92307 185.775487 L 80.480128 188.280259 L 81.225937 188.989066 L 83.037187 190.103943 L 86.340054 191.801876 L 87.298951 192.351796 L 90.708363 194.140828 L 91.986892 194.86721 L 92.839245 195.050757 L 93.798142 195.314923 L 97.846818 196.930493 L 98.699171 197.028998 L 100.084245 197.140968 L 101.788951 197.570294 L 102.321671 197.469058 L 103.06748 197.232341 L 104.346009 197.038482 L 105.731083 196.725228 L 107.968509 196.102081 L 108.820862 195.496928 L 110.525568 194.020966 L 112.762994 191.951457 L 113.828435 191.635913 L 114.254612 191.162624 L 115.00042 189.725431 L 116.172406 187.552141 L 116.918214 186.675065 L 118.62292 184.959636 L 120.43417 182.800684 L 121.073435 181.642453 L 122.458508 178.878783 L 123.310861 177.724923 L 125.015567 175.735359 L 125.441743 175.634234 L 125.86792 175.782975 L 127.039905 176.573393 L 127.572625 176.564818 L 128.531522 176.361053 L 129.064243 176.574335 L 129.810052 177.218283 L 132.899831 180.088205 L 133.326007 180.258601 L 134.17836 180.26457 L 135.137257 180.155157 L 137.374684 180.330692 L 138.333581 180.505751 L 139.079389 180.712172 L 140.144831 180.939962 L 141.103728 180.793722 L 141.742992 180.784165 L 142.701889 180.724852 L 146.537477 180.58283 L 149.733801 181.026467 L 150.159977 181.302276 L 150.905786 181.745192 L 151.54505 181.736597 L 152.397403 181.750052 L 153.036668 181.891876 L 153.675933 182.183113 L 154.208653 182.398504 L 155.593727 182.327044 L 157.404977 182.699956 L 158.257329 182.508194 L 160.707844 182.25453 L 161.453653 181.720832 L 162.092917 181.229359 L 163.264903 180.356313 L 169.337917 174.187943 L 170.616446 173.451179 L 175.091299 170.952102 L 175.62402 170.788429 L 176.689461 170.760812 L 177.009093 170.890459 L 177.754902 171.264455 L 178.287622 171.316966 L 180.098872 171.16578 L 180.525049 171.264065 L 181.057769 171.177988 L 182.655931 170.657939 L 186.065342 170.469741 L 189.794386 169.842757 L 190.327107 169.944677 L 191.392548 170.106174 L 192.031813 170.073032 L 194.269239 169.875132 L 195.121592 169.8776 L 196.187033 169.619717 L 196.932842 169.589658 L 197.465562 169.534434 L 198.531003 168.98571 L 199.809533 167.882313 L 201.194606 166.202598 L 203.218944 164.723639 L 203.858209 164.635769 L 205.349827 164.657017 L 206.308724 164.373807 L 206.841444 164.240988 L 208.333062 164.136821 L 210.037767 164.011434 L 210.463944 164.236141 L 211.422841 164.868439 L 211.849017 164.967696 L 212.914458 164.996338 L 213.660267 165.443843 L 215.791149 166.83347 L 216.643502 167.23292 L 217.389311 168.21258 L 218.13512 169.17992 L 218.66784 169.530185 L 219.520193 170.09886 L 220.266002 170.873649 L 223.56887 175.176038 L 224.527767 176.429649 L 225.380119 177.151937 L 225.91284 177.558081 L 226.765193 178.578764 L 227.617546 179.605417 L 229.53534 180.985744 L 231.559678 183.055285 L 233.264384 184.913151 L 235.395266 186.442754 L 236.141075 187.083376 L 237.206516 188.161244 L 237.84578 188.505072 L 238.911222 189.13298 L 240.402839 190.234706 L 240.93556 190.455949 L 242.214089 190.700282 L 243.172986 191.14983 L 244.238427 191.662192 L 245.197324 191.832509 L 246.688942 191.727897 L 247.43475 192.058196 L 248.500192 192.661649 L 249.032912 192.714518 L 250.52453 192.650808 L 251.376883 192.937787 L 252.442324 192.734198 L 253.081588 192.699623 L 253.720853 192.995853 L 254.466662 193.353013 L 254.999382 193.401146 L 255.745191 193.125905 L 256.491 192.923988 L 257.343353 193.054278 L 258.408794 193.34574 L 259.474235 193.518799 L 261.392029 193.484252 L 262.670558 193.132473 L 263.203279 192.815749 L 264.26872 192.109461 L 266.506146 191.136898 L 267.358499 190.505189 L 268.210852 189.484893 L 269.915558 187.166673 L 271.300631 185.575898 L 272.685705 183.559133 L 273.751146 181.822917 L 274.603499 179.991816 L 276.521293 175.666048 L 277.267102 174.433189 L 278.01291 173.59328 L 280.996145 171.317999 L 281.63541 171.04441 L 281.955042 171.044332 L 282.807395 171.575196 L 283.340116 172.174518 L 286.749527 176.44413 L 287.175704 176.486529 L 289.093498 175.964661 L 290.372027 175.91799 L 291.117836 175.65676 L 291.757101 175.427687 L 293.568351 175.138809 L 295.486145 174.229404 L 296.231953 174.085387 L 298.256291 173.586204 L 299.0021 173.323343 L 299.747909 173.035027 L 301.346071 172.72929 L 302.198424 172.617872 L 303.157321 172.439298 L 304.648938 172.376209 L 306.673276 172.635047 L 307.632173 172.883118 L 308.804158 172.777596 L 310.082688 172.745568 L 310.935041 172.568858 L 311.574305 172.491561 L 312.639746 172.540077 L 313.279011 172.833347 L 313.811732 173.0062 L 314.983717 172.923446 L 317.753864 172.514528 L 320.097834 171.657882 L 322.441805 170.907762 L 324.572687 170.032116 L 325.744672 169.392816 L 326.597025 168.809971 L 327.662466 168.531839 L 328.088643 168.455465 L 328.940995 167.928986 L 330.006437 167.214483 L 330.432613 167.07381 L 331.817686 166.941229 L 332.563495 166.442208 L 336.399083 163.395217 L 337.144892 163.385735 L 337.784157 163.339927 L 338.529965 162.948019 L 339.808495 162.285774 L 340.873936 162.087256 L 341.513201 161.720131 L 342.79173 161.114079 L 343.537539 161.211196 L 345.881509 161.592136 L 347.266583 161.55144 L 347.905847 161.541507 L 348.651656 161.516219 L 349.290921 161.290784 L 350.995626 160.121852 L 351.741435 160.152446 L 352.593788 160.123679 L 353.233053 159.849462 L 354.405038 159.150737 L 355.257391 158.656058 L 355.896656 158.613481 L 356.855553 158.748948 L 358.027538 159.037283 L 359.199523 159.195444 L 360.15842 159.334382 L 361.650038 159.783222 L 362.822023 159.870288 L 363.354743 160.042428 L 365.059449 160.567641 L 366.231434 160.78121 L 367.509964 161.016762 L 370.067022 161.831154 L 371.345552 161.926875 L 372.09136 162.069626 L 374.541875 162.71409 L 375.074596 163.403105 L 376.459669 165.314897 L 377.098934 165.935987 L 377.631654 166.312204 L 378.803639 167.039361 L 383.065404 170.596281 L 385.409374 173.031075 L 386.474815 173.826254 L 387.433712 174.336146 L 389.244962 174.723198 L 390.203859 175.403367 L 390.843124 175.839253 L 392.54783 176.654957 L 393.826359 177.36772 L 394.35908 177.450394 L 395.104888 177.286854 L 396.809594 176.751758 L 397.448859 177.048177 L 398.620844 177.614961 L 399.366653 177.527269 L 400.645182 177.29656 L 401.604079 177.40396 L 402.243344 177.254318 L 402.882609 176.946882 L 403.841506 176.513037 L 405.333123 176.188594 L 406.824741 176.193895 L 408.742535 176.41253 L 410.44724 175.831592 L 412.578123 174.869302 L 413.53702 174.539599 L 414.709005 174.019065 L 416.733343 172.310355 L 417.905328 171.783727 L 418.544593 171.107382 L 420.888563 167.982219 L 422.060549 165.821035 L 424.084887 161.853494 L 425.256872 160.080056 L 426.215769 158.637557 L 426.961578 157.223749 L 427.813931 155.008439 L 430.370989 147.445976 L 431.329886 145.475656 L 432.71496 143.043923 L 433.993489 141.194676 L 435.05893 140.234185 L 435.698195 140.108498 L 436.124371 140.220385 L 436.657092 140.537193 L 437.402901 141.257998 L 439.640327 143.456814 L 440.279592 143.650026 L 441.0254 143.675057 L 442.090841 143.513939 L 443.475915 143.908373 L 444.11518 144.091703 L 445.180621 144.488146 L 445.926429 144.596869 L 447.950768 144.789196 L 450.188194 144.570558 L 453.064885 145.189044 L 453.917238 145.240347 L 454.556502 145.336218 L 455.302311 145.597718 L 456.687385 145.995711 L 457.85937 145.990615 L 458.39209 146.276136 L 459.137899 146.87259 L 459.67062 147.221232 L 461.375326 147.412534 L 464.784737 147.117332 L 467.44834 147.125777 L 468.087605 146.767943 L 468.726869 146.49245 L 469.579222 146.345268 L 470.538119 146.132711 L 471.283928 145.687518 L 473.201722 144.181864 L 475.971869 142.267914 L 476.824222 142.119011 L 478.315839 141.294683 L 480.872898 139.58555 L 481.831795 139.207363 L 482.790692 139.009643 L 483.962677 138.548783 L 485.241206 137.88292 L 486.413192 137.772118 L 487.372089 137.637513 L 488.97025 137.095959 L 489.502971 136.803959 L 490.355324 136.60726 L 492.379662 136.456613 L 494.190912 136.094559 L 494.723632 135.960767 L 495.149809 136.082762 L 495.895618 136.453721 L 498.0265 136.82435 L 499.518117 137.72983 L 500.157382 137.655876 L 501.435911 137.206506 L 502.075176 137.142674 L 502.714441 136.850717 L 503.140617 136.577596 L 504.312602 135.9817 L 506.656573 136.117971 L 509.42672 135.027125 L 510.065984 135.100056 L 513.58194 136.650803 L 514.221205 136.607619 L 514.540837 136.554039 L 516.032455 137.028795 L 516.671719 137.371881 L 517.524072 137.718496 L 519.654954 138.934657 L 520.081131 139.233756 L 520.933484 139.649766 L 521.35966 139.952046 L 523.490542 140.702387 L 524.236351 141.242157 L 524.98216 141.870998 L 525.621425 142.388847 L 526.260689 142.962208 L 526.580322 143.396832 L 527.113042 144.124917 L 527.645763 144.627864 L 528.391571 145.171288 L 530.202821 147.395951 L 532.227159 150.958374 L 533.505689 152.437579 L 534.358042 153.358236 L 536.169292 155.554178 L 536.595468 155.777835 L 537.447821 156.171632 L 537.980541 156.633741 L 541.070321 159.785981 L 541.816129 160.188018 L 545.438629 161.971521 L 546.50407 162.095485 L 547.995688 162.156549 L 548.741497 162.298313 L 548.741497 162.298313" style="fill:none;stroke:#1f77b4;stroke-linecap:square;stroke-width:2;" />
			</g>
			<g id="line2d_31">
				<path clip-path="url(#p80ca59f66e)" d="M 75.792187 146.154275 L 76.005276 147.412141 L 77.390349 151.587448 L 77.92307 152.48497 L 78.349246 152.45904 L 79.095055 154.118712 L 79.627775 155.999645 L 81.012849 159.446643 L 81.545569 159.297395 L 81.865202 159.500676 L 82.07829 159.334491 L 82.291378 159.456659 L 83.037187 160.863957 L 83.996084 164.209807 L 84.741893 166.133331 L 85.381157 167.46484 L 85.594246 167.895358 L 86.446599 170.022417 L 86.872775 170.787897 L 87.51204 172.097273 L 88.04476 173.401079 L 88.470937 174.310312 L 89.642922 176.881375 L 89.85601 177.069405 L 90.069098 177.338359 L 90.175642 177.347803 L 91.986892 180.190037 L 93.798142 182.139097 L 94.863583 183.219411 L 95.609392 184.138513 L 95.82248 184.255659 L 96.568289 185.05326 L 98.272995 186.433998 L 99.44498 186.492448 L 100.084245 187.156084 L 100.510421 187.758873 L 100.723509 187.852745 L 100.936598 188.123349 L 101.149686 188.279869 L 101.362774 188.340064 L 101.788951 188.630141 L 102.321671 188.443391 L 102.747848 188.059486 L 102.960936 188.004678 L 103.174024 187.996645 L 103.387112 187.937958 L 103.6002 187.975246 L 105.304906 187.863786 L 106.050715 187.969706 L 106.476891 187.74321 L 106.796524 187.638365 L 107.009612 187.627858 L 107.329244 187.47882 L 107.861965 187.054617 L 108.288141 186.585352 L 109.566671 185.779006 L 109.886303 185.519989 L 109.992847 185.5314 L 111.164832 184.10602 L 111.697553 183.807736 L 111.910641 183.774163 L 113.934979 183.02638 L 114.254612 182.539808 L 114.680788 181.788036 L 115.213509 181.126557 L 115.426597 180.875841 L 116.492038 179.104094 L 116.598582 179.068659 L 116.81167 178.879926 L 117.131303 178.853609 L 118.0902 178.079176 L 118.409832 177.630075 L 118.516376 177.577595 L 118.942552 176.980829 L 120.114538 176.21331 L 121.393067 173.522566 L 121.819243 172.674361 L 122.458508 171.619481 L 123.310861 170.410688 L 123.950126 169.4833 L 124.269758 169.162883 L 124.482846 168.708564 L 125.122111 166.924457 L 125.441743 166.291219 L 125.654831 166.322344 L 125.86792 166.47519 L 126.081008 166.461512 L 126.507184 166.480467 L 127.892258 166.733478 L 128.21189 166.728293 L 128.424978 166.863037 L 128.638067 166.940246 L 128.851155 167.049374 L 129.596964 167.573966 L 129.810052 167.588191 L 130.342772 167.61189 L 130.555861 167.63419 L 131.621302 168.958742 L 131.83439 168.977715 L 132.260566 169.319031 L 132.580199 169.240404 L 132.899831 169.030626 L 133.432552 168.908928 L 133.64564 168.986347 L 134.604537 169.718627 L 134.924169 169.790696 L 135.350346 169.788357 L 135.563434 169.867875 L 135.776522 169.707611 L 136.096154 169.770731 L 136.628875 169.343041 L 136.841963 169.325703 L 137.26814 168.77048 L 138.013948 168.134539 L 139.399022 167.933666 L 139.825198 168.053968 L 140.038286 168.068172 L 140.251375 167.990393 L 140.571007 167.952378 L 140.784095 167.905626 L 140.997183 167.588957 L 141.210272 167.623696 L 141.529904 167.399842 L 142.062625 167.346692 L 142.488801 167.454354 L 142.701889 167.599695 L 143.23461 167.90252 L 143.76733 167.552104 L 143.873874 167.329119 L 144.939316 161.63787 L 145.258948 161.243828 L 145.685124 161.206467 L 145.791668 161.316232 L 145.898213 161.252843 L 146.537477 161.968556 L 146.750565 161.655834 L 147.496374 160.337588 L 147.922551 160.132504 L 148.242183 160.255375 L 148.348727 160.155605 L 148.561815 160.435385 L 148.774904 160.514291 L 149.414168 161.178037 L 149.520712 161.03779 L 149.733801 161.162514 L 150.373065 160.536081 L 150.586153 160.543788 L 150.799242 160.375392 L 151.54505 158.567215 L 151.864683 158.009218 L 152.397403 158.813138 L 152.82358 158.683398 L 153.249756 158.56779 L 153.675933 158.87131 L 153.995565 159.351786 L 154.102109 159.418946 L 154.528286 158.630537 L 154.847918 158.135667 L 154.954462 157.990011 L 155.16755 157.438514 L 155.487183 157.743043 L 155.593727 157.891606 L 156.019903 157.814015 L 156.126447 157.907506 L 157.191888 154.221472 L 157.511521 153.887275 L 157.937697 152.074054 L 158.363874 150.255035 L 158.576962 149.895743 L 158.683506 149.970475 L 159.216226 151.269908 L 159.748947 152.744594 L 159.855491 152.969929 L 160.068579 152.709031 L 160.175123 152.712112 L 160.388212 152.335419 L 160.6013 151.820557 L 161.027476 150.814607 L 161.879829 149.648932 L 162.625638 149.369415 L 162.94527 149.456757 L 163.477991 149.474616 L 163.797623 148.897379 L 164.010711 148.590149 L 164.2238 148.561312 L 164.543432 148.926765 L 165.289241 150.344028 L 165.502329 150.631079 L 165.715417 150.990324 L 166.461226 149.463281 L 166.887402 148.211253 L 167.420123 147.078289 L 167.952844 146.831162 L 168.165932 147.068576 L 168.37902 147.368291 L 168.805196 146.108437 L 169.444461 144.532253 L 169.551005 144.71021 L 169.764093 144.881076 L 169.977182 145.229447 L 170.296814 145.262764 L 170.509902 145.497041 L 170.616446 145.412254 L 170.829535 145.499291 L 171.681887 145.742945 L 172.00152 145.466712 L 172.214608 145.009623 L 172.321152 144.96227 L 173.280049 143.073658 L 174.132402 139.753392 L 174.452034 138.397278 L 174.771667 137.418641 L 174.878211 137.311471 L 175.197843 136.335162 L 175.410931 136.219192 L 175.837108 135.151609 L 176.050196 135.017332 L 176.263284 134.885009 L 176.796005 133.177371 L 177.009093 132.606969 L 177.435269 131.042047 L 177.648358 130.925091 L 178.074534 131.01608 L 178.394166 131.605076 L 178.500711 131.613935 L 178.713799 131.849086 L 179.033431 131.816204 L 179.672696 129.256516 L 180.205416 126.871136 L 180.418505 126.762783 L 180.631593 126.715009 L 180.844681 127.180871 L 181.164313 127.784764 L 182.762475 133.118135 L 183.827916 130.041959 L 183.93446 130.250223 L 184.467181 131.486236 L 184.786813 131.786083 L 184.893357 131.864086 L 185.426078 130.885973 L 185.852254 131.196368 L 186.278431 130.464502 L 186.811151 129.428974 L 187.024239 128.766259 L 187.55696 129.71674 L 187.663504 129.598127 L 188.302769 130.350938 L 189.474754 124.459836 L 190.007475 124.206276 L 190.114019 124.185333 L 190.433651 124.409349 L 190.646739 124.411706 L 190.753283 124.5296 L 191.499092 121.928306 L 192.031813 119.634423 L 192.138357 119.532419 L 192.351445 118.726546 L 192.777621 119.212354 L 192.99071 119.667066 L 193.310342 120.609789 L 193.736518 122.063393 L 194.908504 124.061643 L 195.015048 124.110131 L 195.547768 124.895193 L 195.867401 124.622429 L 196.080489 124.654706 L 196.187033 124.603698 L 196.293577 124.721913 L 196.613209 124.363654 L 197.252474 125.789786 L 197.465562 125.778102 L 197.998283 125.259206 L 198.424459 124.495597 L 198.637548 124.251719 L 198.95718 123.536731 L 199.809533 121.512469 L 200.235709 121.460627 L 200.555342 121.697905 L 200.981518 122.04698 L 201.194606 121.90232 L 201.30115 121.898771 L 201.407694 121.692751 L 202.153503 118.116345 L 202.473136 116.281411 L 202.686224 115.898994 L 203.005856 115.383045 L 203.432033 116.48016 L 203.751665 117.007674 L 203.964753 117.278296 L 204.604018 118.668009 L 205.136738 120.32486 L 205.349827 120.696025 L 205.669459 121.410292 L 205.776003 121.4958 L 205.989091 121.886756 L 206.7349 122.527734 L 207.906885 125.18441 L 208.119973 124.977149 L 208.333062 124.423163 L 208.865782 122.949866 L 209.07887 122.689879 L 209.398503 122.883839 L 209.824679 124.232249 L 210.3574 125.275417 L 210.463944 125.300026 L 210.996664 124.218042 L 211.209753 123.958745 L 211.742473 120.387588 L 212.275194 117.951006 L 212.914458 119.284132 L 213.234091 119.819713 L 213.340635 119.711238 L 214.192988 120.90879 L 215.258429 125.439204 L 215.897694 126.2286 L 216.110782 126.378838 L 216.217326 126.436854 L 216.430414 126.837225 L 216.856591 126.378915 L 216.963135 126.414802 L 217.176223 126.169451 L 217.282767 126.158348 L 217.389311 125.97477 L 217.495855 126.02653 L 218.028576 127.389763 L 218.13512 127.513206 L 218.241664 127.461942 L 218.454752 127.663808 L 219.094017 128.657732 L 219.733282 130.552708 L 220.052914 131.513437 L 220.585634 133.431112 L 221.75762 137.722438 L 221.864164 137.772123 L 222.29034 138.380943 L 222.396884 138.447172 L 223.355781 140.616981 L 223.781958 141.383636 L 224.314678 143.734545 L 225.060487 144.820251 L 225.380119 144.870397 L 225.593208 145.199957 L 227.617546 149.393777 L 227.937178 149.876434 L 229.748428 154.47869 L 230.06806 155.525626 L 230.707325 157.133841 L 231.772766 160.477449 L 232.625119 162.261051 L 233.264384 163.392171 L 233.69056 163.599992 L 234.010192 163.54017 L 234.223281 163.397588 L 234.649457 163.089509 L 234.756001 163.034909 L 235.395266 163.646533 L 235.821442 164.60621 L 236.034531 164.945256 L 237.84578 168.484571 L 238.165413 168.914306 L 238.804677 169.988349 L 240.509383 172.550013 L 241.574824 173.575447 L 241.894457 173.841152 L 242.320633 174.384816 L 242.640265 175.055896 L 243.066442 175.67306 L 243.27953 175.953322 L 243.492618 176.308862 L 243.599162 176.343249 L 244.238427 177.170893 L 244.771148 177.707799 L 245.197324 178.489386 L 245.410412 178.716362 L 245.623501 178.958897 L 245.836589 179.156585 L 246.049677 179.141783 L 246.90203 179.602723 L 247.967471 180.720741 L 248.393647 180.789974 L 248.926368 180.69697 L 249.352544 180.369524 L 249.565633 180.283686 L 249.991809 180.137894 L 250.417986 180.396572 L 250.631074 180.427834 L 250.950706 180.53955 L 251.376883 180.448083 L 252.016147 179.832589 L 252.761956 179.634474 L 253.401221 180.057442 L 253.614309 180.035364 L 253.827397 179.999942 L 254.040485 179.983392 L 254.573206 180.11577 L 255.212471 180.220933 L 256.064823 180.071948 L 256.384456 179.780966 L 256.597544 179.984424 L 256.704088 179.869344 L 256.917176 180.01547 L 257.130265 179.93411 L 257.769529 180.160748 L 257.982617 180.154682 L 258.30225 180.406323 L 259.048059 180.477623 L 259.687323 180.351556 L 260.006956 180.441466 L 260.433132 180.765397 L 260.64622 180.805467 L 260.859308 180.945454 L 261.818205 181.44489 L 262.031294 181.598837 L 262.45747 181.564306 L 263.203279 181.494698 L 263.416367 181.438393 L 263.629455 181.439791 L 263.735999 181.451576 L 263.842544 181.317213 L 264.162176 181.503951 L 264.588352 181.496856 L 264.801441 181.606506 L 264.907985 181.668055 L 265.014529 181.551495 L 265.334161 181.626049 L 266.719235 180.970227 L 267.038867 180.773053 L 267.251955 180.61658 L 267.678132 180.311934 L 268.210852 179.690358 L 269.169749 177.773606 L 269.70247 177.186546 L 270.022102 176.897632 L 270.767911 176.242158 L 271.407175 175.501469 L 271.726808 174.958239 L 271.939896 174.657593 L 272.472617 173.89274 L 272.792249 173.604899 L 273.218425 173.035847 L 273.431514 172.833056 L 273.751146 172.21265 L 274.283866 170.897312 L 274.710043 169.675187 L 276.521293 165.096052 L 277.160557 164.537435 L 277.267102 164.541002 L 278.439087 163.223724 L 280.250337 160.46722 L 280.996145 159.014212 L 281.422322 158.412815 L 281.848498 158.175532 L 281.955042 158.328611 L 282.168131 158.278247 L 283.233572 159.149238 L 283.659748 159.692225 L 283.872836 159.744479 L 284.192469 159.999514 L 284.618645 159.887358 L 284.831733 160.132011 L 285.044822 160.26171 L 285.364454 160.127806 L 285.684086 159.880605 L 286.003719 159.42664 L 286.216807 159.201783 L 286.323351 159.197169 L 286.536439 158.973221 L 286.962616 158.65981 L 287.175704 158.586798 L 288.454233 156.883587 L 288.560777 156.980504 L 288.88041 156.728389 L 289.839307 155.796524 L 290.052395 155.957367 L 290.158939 155.913539 L 290.372027 156.15061 L 290.69166 155.863934 L 290.798204 155.783154 L 290.904748 155.86317 L 291.437468 155.449903 L 291.650557 155.747363 L 291.863645 155.696608 L 292.609454 155.928079 L 292.822542 155.939551 L 292.929086 156.053859 L 293.142174 155.673158 L 293.355262 155.515629 L 293.887983 154.69779 L 294.101071 154.533991 L 294.953424 154.319532 L 295.166512 154.238333 L 295.3796 154.078913 L 295.592689 153.809333 L 295.699233 153.851081 L 296.231953 153.023123 L 296.65813 152.011019 L 296.871218 151.714547 L 297.403939 151.72001 L 297.723571 152.072748 L 298.46938 152.089622 L 298.575924 151.985165 L 299.321733 152.388743 L 299.534821 152.965543 L 300.067541 153.910412 L 300.28063 154.187401 L 300.387174 154.326698 L 300.493718 154.282957 L 301.239527 154.857864 L 301.452615 154.704859 L 301.559159 154.709668 L 302.091879 154.308382 L 302.6246 154.130502 L 302.837688 154.226955 L 302.944232 154.248354 L 303.050776 154.113753 L 303.157321 154.227906 L 303.263865 154.139705 L 303.690041 154.546222 L 304.755482 153.214374 L 304.96857 153.005127 L 305.394747 152.741902 L 305.714379 153.081104 L 305.820923 153.139864 L 306.673276 155.161584 L 307.099453 156.086174 L 307.419085 156.105741 L 307.632173 156.295802 L 307.738717 156.285702 L 308.05835 156.556965 L 308.271438 156.683511 L 308.697614 157.108897 L 309.017247 157.365564 L 309.8696 156.654047 L 310.189232 156.146576 L 310.508864 156.112706 L 310.615408 156.263271 L 310.828497 156.261935 L 311.467761 156.465487 L 311.574305 156.455666 L 311.787394 156.280502 L 312.21357 156.202033 L 312.533202 156.336483 L 312.746291 156.451779 L 312.959379 156.700025 L 313.279011 157.173931 L 313.492099 157.298287 L 313.705188 157.386926 L 314.02482 157.173727 L 314.237908 157.001301 L 314.450996 156.871855 L 314.770629 156.550491 L 314.877173 156.561329 L 315.090261 156.340174 L 315.409893 156.133007 L 315.729526 156.246584 L 316.262246 156.189938 L 316.581879 155.773859 L 317.221143 155.52732 L 317.327687 155.500706 L 317.540776 155.649722 L 317.753864 155.406772 L 318.819305 153.368208 L 319.245481 153.351212 L 319.565114 153.24739 L 320.097834 153.655371 L 320.737099 154.562663 L 320.843643 154.603748 L 320.950187 154.517001 L 321.056731 154.578448 L 321.589452 154.005921 L 321.909084 153.368114 L 322.441805 152.457269 L 322.654893 152.422967 L 322.867981 152.707744 L 323.081069 152.69916 L 323.294158 152.8355 L 323.400702 152.795826 L 324.679231 149.964368 L 325.531584 148.995891 L 325.638128 148.978234 L 326.064304 148.398043 L 326.383937 148.623116 L 326.703569 148.890295 L 326.810113 149.019632 L 327.129746 148.84887 L 327.555922 148.778413 L 328.195187 149.164698 L 328.621363 149.048668 L 328.940995 148.341334 L 329.260628 147.659354 L 330.219525 145.809596 L 330.539157 145.774426 L 330.965334 145.530181 L 332.137319 145.02654 L 332.350407 145.024203 L 332.670039 144.978493 L 333.096216 144.405586 L 333.628936 142.47919 L 334.055113 140.893004 L 334.694377 139.541151 L 335.54673 137.115846 L 336.292539 135.235519 L 336.931804 133.49991 L 337.35798 132.295516 L 337.571068 132.235248 L 337.890701 132.268696 L 338.316877 130.700753 L 339.382318 123.390164 L 340.234671 120.221411 L 340.554304 119.280133 L 340.873936 119.082408 L 340.98048 118.773424 L 342.045921 111.959962 L 343.217906 114.727055 L 343.537539 114.55704 L 343.857171 113.91023 L 344.283347 112.465878 L 345.348789 108.162609 L 346.307686 106.723985 L 347.053494 104.87409 L 347.479671 104.104804 L 348.545112 99.981409 L 348.971288 100.234681 L 349.290921 99.105021 L 349.610553 98.07116 L 349.930185 97.591199 L 350.036729 97.5076 L 350.249818 98.009375 L 350.56945 98.913043 L 351.315259 96.827278 L 351.954523 94.669385 L 352.274156 93.531276 L 353.446141 87.986638 L 354.19195 85.580209 L 354.298494 85.25252 L 354.831214 85.492229 L 355.790111 87.221778 L 355.896656 87.35245 L 356.429376 89.40264 L 356.962097 92.254697 L 357.494817 93.19075 L 358.027538 93.42001 L 358.773347 96.134776 L 359.199523 98.002447 L 359.732244 99.259311 L 360.371508 101.727472 L 360.797685 103.19817 L 361.223861 103.996861 L 361.650038 103.798669 L 362.289302 103.38194 L 362.822023 105.075457 L 363.354743 107.01077 L 363.994008 107.624834 L 364.207096 107.638103 L 364.420184 107.526939 L 364.739817 108.167502 L 365.165993 108.802473 L 365.698714 109.32394 L 365.805258 109.216952 L 366.231434 109.588607 L 366.764155 110.605591 L 367.829596 113.089281 L 368.149228 113.891282 L 368.681949 114.006803 L 369.108125 113.791392 L 369.74739 114.646813 L 370.173566 115.686592 L 370.386655 116.056634 L 370.599743 116.477127 L 370.919375 117.200815 L 371.55864 118.914197 L 371.878272 119.49178 L 371.984816 119.492614 L 372.943713 118.43102 L 373.263346 118.738437 L 373.476434 118.75204 L 373.796066 119.575833 L 374.541875 121.945685 L 375.500772 124.614815 L 376.353125 126.573809 L 376.99239 128.108631 L 377.205478 128.438149 L 378.270919 131.535096 L 378.377463 131.610511 L 378.910184 132.613906 L 379.123272 132.82184 L 379.549448 133.69139 L 379.655992 133.695391 L 380.401801 135.086264 L 380.614889 135.734582 L 381.360698 138.700356 L 382.639227 141.734887 L 382.852316 141.755264 L 383.065404 141.731115 L 383.385036 141.795806 L 383.704669 141.621642 L 385.30283 144.20644 L 387.11408 149.342001 L 387.327168 149.61577 L 387.753345 148.565274 L 388.392609 147.138147 L 388.92533 147.870434 L 390.203859 150.939105 L 390.843124 151.620049 L 391.056212 151.708038 L 392.228197 154.57025 L 392.760918 156.165785 L 393.08055 156.723272 L 393.293639 156.96696 L 394.678712 158.748626 L 395.424521 159.278421 L 395.637609 159.244465 L 396.17033 159.461635 L 396.596506 159.722287 L 396.916138 159.807643 L 397.235771 160.121083 L 397.342315 160.027429 L 398.833932 161.273701 L 398.940476 161.259293 L 399.260109 161.523395 L 399.473197 161.590503 L 400.219006 162.175465 L 400.538638 162.551956 L 400.964815 163.108324 L 401.071359 163.1131 L 401.284447 163.319797 L 401.923712 163.61819 L 402.243344 163.421613 L 402.776064 163.181386 L 403.308785 163.481221 L 403.841506 164.032737 L 404.161138 164.154786 L 404.48077 164.11137 L 404.693858 164.028386 L 404.800403 164.132251 L 405.013491 164.012007 L 406.185476 164.483745 L 406.29202 164.422341 L 406.931285 164.803519 L 407.144373 164.831095 L 407.464005 164.999234 L 409.062167 165.303573 L 409.381799 165.095997 L 410.127608 165.330648 L 410.660329 165.839811 L 410.766873 165.785876 L 410.979961 165.799131 L 411.193049 165.751215 L 411.406137 165.793546 L 411.619226 165.688088 L 411.832314 165.665725 L 412.25849 165.612525 L 412.791211 165.40125 L 413.004299 165.310714 L 413.217387 165.258602 L 413.430476 165.316476 L 414.06974 165.348084 L 414.176284 165.427926 L 414.602461 165.246099 L 414.709005 165.283161 L 414.922093 165.141261 L 415.34827 164.793337 L 415.88099 164.424543 L 416.200622 163.98843 L 416.520255 163.752965 L 416.946431 163.431774 L 417.479152 163.304161 L 417.69224 163.144456 L 418.118416 162.914123 L 418.544593 162.491011 L 418.651137 162.454993 L 420.249299 159.912881 L 420.568931 159.406285 L 421.634372 158.119639 L 422.273637 156.873214 L 423.019446 154.68082 L 423.871798 153.144114 L 424.511063 152.094273 L 425.256872 150.782749 L 425.683048 150.086039 L 426.322313 148.766422 L 427.068122 147.161181 L 427.174666 147.003166 L 430.051357 137.657434 L 431.542974 133.981826 L 431.756063 133.451419 L 432.182239 132.733836 L 432.288783 132.730064 L 432.928048 131.86963 L 433.24768 131.344922 L 433.567313 130.634626 L 434.100033 129.669986 L 434.313121 129.344084 L 434.419665 129.300221 L 434.632754 128.959091 L 435.911283 127.46745 L 436.124371 127.324397 L 436.230915 127.329917 L 436.444004 127.220021 L 437.083268 127.172573 L 437.189812 127.183372 L 437.722533 126.669425 L 437.829077 126.6653 L 437.935621 126.517228 L 438.361798 126.78376 L 438.68143 127.158501 L 438.894518 127.473412 L 439.107606 127.580053 L 439.427239 127.397156 L 439.746871 127.526871 L 439.853415 127.489937 L 440.279592 127.955539 L 440.49268 128.095752 L 440.918856 127.967469 L 441.131944 127.796615 L 441.558121 128.033078 L 441.877753 128.263611 L 442.197386 128.456044 L 442.410474 128.489079 L 443.049738 128.264233 L 443.475915 127.813715 L 443.689003 127.86943 L 443.795547 127.796748 L 444.541356 128.55217 L 445.180621 128.494321 L 445.393709 128.479958 L 446.032974 128.085166 L 446.139518 127.874943 L 446.45915 127.933605 L 446.778782 127.692082 L 447.311503 127.619024 L 447.524591 127.429826 L 448.163856 127.493215 L 448.376944 127.410661 L 448.590032 127.579346 L 448.80312 127.408304 L 449.122753 127.455712 L 449.229297 127.366154 L 449.442385 127.638255 L 449.548929 127.637259 L 450.720914 128.870403 L 450.827459 128.911909 L 451.147091 129.348823 L 451.360179 129.594566 L 451.8929 129.909819 L 452.105988 130.121418 L 452.638708 130.376227 L 452.958341 130.24547 L 453.277973 129.919099 L 453.491061 129.784512 L 453.810694 129.335183 L 454.023782 129.137539 L 454.449958 128.596634 L 454.876135 128.646518 L 455.089223 128.709619 L 455.408855 129.162473 L 455.515399 129.154124 L 455.835032 129.623722 L 456.367752 130.475811 L 456.474296 130.508866 L 456.580841 130.665885 L 457.007017 130.399817 L 457.326649 129.820295 L 457.433193 129.948038 L 457.85937 129.691424 L 458.285546 129.710978 L 458.39209 129.722872 L 458.498635 129.589409 L 459.564076 130.308223 L 459.777164 130.295561 L 460.629517 130.126219 L 460.842605 130.232821 L 461.694958 131.432426 L 461.801502 131.526902 L 462.121134 131.431082 L 462.334223 131.306119 L 462.547311 131.270258 L 463.186575 131.194396 L 463.29312 131.138689 L 463.399664 131.252283 L 463.612752 131.249181 L 464.038928 131.550922 L 464.678193 131.428903 L 464.891281 131.289273 L 465.530546 131.84525 L 465.743634 131.980762 L 465.956722 131.995756 L 467.022163 130.559253 L 467.874516 129.258948 L 468.513781 128.876329 L 468.939957 128.631 L 469.579222 127.679246 L 469.79231 127.378638 L 469.898854 127.355126 L 470.857751 125.441814 L 471.07084 125.034685 L 471.390472 124.601621 L 471.923193 123.873092 L 472.88209 123.109282 L 473.308266 123.074652 L 473.840987 122.675723 L 474.906428 120.922023 L 475.22606 120.761988 L 475.545692 120.276473 L 475.758781 120.192102 L 477.356942 119.100248 L 477.996207 118.001687 L 479.274736 113.809104 L 479.487824 113.563112 L 479.700913 113.251314 L 480.233633 113.039812 L 480.340177 113.09161 L 481.299074 112.153586 L 481.512163 112.108327 L 481.618707 112.12587 L 481.938339 112.398727 L 482.151427 112.487543 L 482.257971 112.494399 L 482.47106 112.368346 L 482.684148 112.478163 L 482.790692 112.555365 L 483.216868 113.323615 L 483.323412 113.338671 L 483.536501 113.489224 L 483.749589 113.475193 L 484.388854 112.529878 L 485.028118 112.241145 L 485.560839 111.412096 L 486.200103 110.17781 L 486.519736 109.606748 L 487.585177 106.652669 L 487.798265 106.724942 L 488.330986 106.381635 L 488.650618 105.884755 L 489.289883 103.804628 L 489.716059 102.606193 L 490.355324 102.075897 L 490.461868 102.024785 L 490.7815 101.524634 L 490.994588 101.320001 L 491.953485 99.358965 L 492.166574 98.974602 L 492.912382 96.363773 L 493.551647 93.654739 L 494.404 91.094462 L 495.575985 82.818262 L 496.21525 78.996336 L 496.854515 75.072029 L 497.174147 73.641562 L 497.493779 72.945693 L 498.0265 71.654472 L 498.133044 71.574003 L 498.452676 70.884844 L 498.665764 70.642423 L 498.772309 70.669532 L 499.198485 70.226576 L 499.83775 65.270494 L 500.477014 60.479502 L 500.796647 59.728306 L 501.862088 50.453528 L 501.968632 50.59864 L 502.075176 50.486065 L 502.288264 50.734752 L 502.394808 50.875187 L 503.034073 49.007497 L 503.460249 48.060302 L 504.206058 49.97097 L 504.312602 50.187357 L 504.951867 49.89684 L 505.058411 49.652556 L 505.378043 50.198915 L 505.697676 51.278797 L 506.123852 52.190923 L 506.230396 52.00262 L 506.550029 50.641773 L 507.082749 48.91703 L 507.828558 47.22012 L 507.935102 47.217988 L 508.254734 46.582167 L 508.893999 48.048055 L 509.000543 48.06243 L 509.213631 48.419699 L 509.320176 48.503939 L 509.746352 49.44635 L 509.852896 49.623265 L 510.492161 52.155582 L 510.811793 52.018445 L 510.918337 51.83578 L 511.451058 49.317538 L 511.557602 49.36361 L 511.877234 49.984581 L 512.409955 52.838651 L 512.516499 53.475365 L 513.368852 52.842813 L 513.475396 52.694829 L 513.58194 52.346609 L 513.795028 52.607684 L 514.008116 52.808064 L 514.114661 52.806481 L 514.647381 54.02961 L 516.138999 61.168245 L 516.991352 64.385944 L 517.524072 66.648527 L 518.589513 72.570123 L 518.909146 73.358178 L 519.974587 73.716231 L 520.187675 74.005258 L 520.933484 75.835543 L 521.572748 77.026489 L 521.785837 77.200479 L 521.998925 77.02244 L 522.212013 77.073889 L 522.425101 76.992405 L 522.744734 77.397654 L 522.957822 78.065324 L 524.342895 82.473256 L 524.875616 83.48798 L 524.98216 83.38386 L 525.301792 84.076352 L 525.621425 84.875422 L 525.834513 85.048347 L 526.260689 85.771696 L 526.473777 86.096831 L 527.432674 89.219065 L 527.752307 89.914745 L 528.60466 92.418294 L 529.030836 94.272808 L 529.989733 96.273558 L 530.522454 97.61435 L 530.628998 97.746847 L 530.735542 97.694897 L 530.94863 98.036505 L 531.481351 99.254444 L 532.653336 102.662854 L 532.972968 103.268444 L 533.186056 103.535098 L 533.399145 103.533124 L 533.718777 103.181866 L 533.825321 103.181949 L 534.251498 103.804922 L 534.464586 104.564277 L 534.890762 106.154435 L 538.832894 118.004542 L 539.365615 119.104614 L 539.791791 119.652651 L 540.00488 120.163591 L 540.857232 121.446809 L 540.963777 121.417006 L 541.603041 122.33511 L 542.135762 123.529082 L 543.307747 125.620803 L 544.479732 128.128371 L 545.545173 130.704973 L 546.290982 132.537729 L 547.143335 133.678618 L 547.356423 133.7923 L 548.741497 135.489184 L 548.741497 135.489184" style="fill:none;stroke:#d62728;stroke-linecap:square;" />
			</g>
			<g id="line2d_32">
				<path clip-path="url(#p80ca59f66e)" d="M 75.792187 162.481753 L 75.898732 163.531795 L 76.005276 163.40662 L 76.11182 163.747086 L 76.324908 163.5485 L 76.64454 163.919803 L 76.857629 164.468063 L 77.177261 164.489676 L 77.496893 164.8183 L 77.603437 164.834246 L 77.709981 164.727217 L 77.92307 164.216986 L 78.136158 164.334239 L 78.242702 164.38957 L 78.349246 164.202223 L 78.45579 164.320313 L 78.562334 164.206515 L 79.201599 164.673955 L 79.308143 164.575591 L 79.521231 164.907786 L 79.627775 164.894232 L 79.840864 164.706023 L 80.26704 164.728547 L 80.586672 164.365484 L 81.012849 164.409893 L 81.332481 164.118185 L 81.439025 164.247957 L 81.758658 163.852391 L 82.184834 164.118768 L 82.504466 163.867099 L 82.717555 163.857637 L 82.824099 164.006438 L 83.250275 163.227608 L 83.569908 163.277495 L 83.88954 162.976616 L 83.996084 162.949515 L 84.102628 163.056523 L 84.209172 162.962392 L 84.42226 163.039329 L 84.635349 162.893222 L 84.954981 163.28434 L 85.061525 163.265445 L 85.274613 163.054067 L 85.70079 163.248303 L 86.020422 162.952106 L 86.340054 163.143372 L 86.659687 162.719098 L 86.872775 162.745284 L 86.979319 162.726655 L 87.298951 162.292589 L 87.405496 162.381707 L 87.725128 162.242796 L 87.831672 161.960085 L 87.938216 162.02194 L 88.470937 161.153392 L 88.577481 161.178881 L 88.790569 160.893856 L 88.897113 160.994773 L 89.003657 160.723287 L 89.216745 161.179583 L 89.429834 161.257139 L 89.642922 161.05175 L 89.749466 161.133731 L 90.921451 158.588596 L 91.027995 158.671235 L 91.347628 158.242533 L 91.454172 158.108872 L 91.66726 158.174876 L 91.773804 157.795885 L 91.880348 157.91103 L 92.199981 157.209911 L 92.306525 157.252266 L 92.413069 157.155623 L 92.519613 157.263343 L 92.732701 156.899207 L 93.052333 157.078143 L 93.158878 157.063862 L 93.265422 157.351686 L 93.585054 156.879066 L 93.904686 157.127075 L 94.01123 156.829893 L 94.543951 157.439084 L 94.757039 157.877298 L 94.863583 157.932604 L 95.183216 158.803176 L 95.396304 158.692849 L 96.142113 157.505203 L 96.355201 157.489055 L 96.887921 157.532097 L 97.10101 157.210429 L 97.314098 157.423384 L 97.527186 157.105604 L 97.953363 157.211524 L 98.166451 157.489618 L 98.272995 157.344829 L 98.379539 157.006619 L 98.805715 157.480459 L 99.125348 157.108672 L 99.551524 157.364023 L 100.190789 156.357138 L 100.297333 156.102996 L 101.149686 156.801275 L 101.25623 157.187499 L 101.469318 157.13327 L 101.788951 156.43795 L 102.108583 156.477615 L 102.321671 155.807127 L 102.428215 155.919972 L 102.534759 155.815192 L 102.854392 156.127792 L 102.960936 155.950651 L 103.280568 156.259567 L 103.493656 156.641577 L 103.6002 156.638136 L 103.813289 157.020914 L 104.026377 156.705317 L 104.132921 156.756392 L 104.239465 156.468188 L 104.346009 156.631551 L 104.772186 156.138346 L 104.985274 156.127132 L 105.091818 156.330915 L 105.198362 156.042047 L 105.304906 156.304734 L 105.624539 155.839114 L 105.731083 155.895803 L 105.944171 155.696385 L 106.370347 155.999882 L 106.476891 156.056908 L 106.68998 156.393635 L 107.009612 156.673876 L 107.116156 156.686579 L 107.2227 156.978269 L 107.542333 156.717114 L 107.968509 157.210403 L 108.288141 156.830752 L 108.50123 156.909725 L 108.607774 156.992604 L 108.927406 156.558399 L 109.03395 156.443804 L 109.460127 157.009912 L 109.886303 156.848378 L 109.992847 156.814878 L 110.205935 156.330582 L 110.312479 156.264683 L 110.632112 155.77167 L 110.8452 155.665249 L 111.058288 155.824754 L 111.271376 156.008062 L 111.377921 155.91904 L 111.697553 156.233718 L 111.804097 156.166727 L 112.017185 155.834284 L 112.230273 155.925786 L 112.336818 155.842443 L 112.65645 155.958048 L 112.762994 155.874099 L 113.082626 156.477287 L 113.18917 156.174694 L 113.508803 156.404654 L 113.615347 156.340184 L 113.934979 156.420153 L 114.148067 156.22302 L 114.254612 156.565281 L 114.574244 155.994355 L 114.787332 155.87505 L 115.639685 154.626113 L 115.959317 154.483872 L 116.172406 154.640841 L 116.27895 154.569534 L 116.492038 154.297844 L 116.598582 154.318066 L 117.131303 153.36726 L 117.344391 153.690654 L 117.557479 153.879219 L 118.0902 154.248736 L 118.516376 153.509666 L 118.62292 153.322066 L 118.729464 153.362874 L 118.836008 153.530139 L 119.049097 153.2895 L 119.155641 153.273284 L 119.794905 154.340414 L 120.007994 154.144391 L 120.221082 154.269507 L 120.327626 154.314821 L 120.753802 153.778014 L 120.860346 153.405041 L 120.966891 153.545297 L 121.606155 152.707074 L 121.925788 152.505821 L 122.032332 152.043015 L 122.138876 152.097749 L 122.351964 151.928286 L 122.458508 151.962852 L 122.671596 151.690437 L 122.884685 151.272614 L 122.991229 151.281738 L 123.097773 151.510316 L 123.310861 151.245508 L 123.630493 150.869638 L 124.05667 151.148335 L 124.163214 151.08993 L 124.269758 151.17386 L 124.482846 150.969859 L 124.58939 151.199959 L 124.909023 150.896613 L 125.015567 150.958649 L 125.335199 150.356679 L 125.441743 150.393248 L 125.548287 150.62474 L 125.761376 150.649426 L 126.187552 151.386745 L 126.507184 152.305461 L 126.613728 152.266264 L 127.039905 152.608307 L 127.359537 152.61001 L 127.466081 152.688382 L 127.998802 152.339009 L 128.424978 152.165347 L 128.638067 151.79177 L 129.064243 151.850058 L 129.170787 151.813976 L 129.383875 151.893028 L 129.490419 151.757382 L 129.596964 151.803126 L 129.810052 152.041089 L 129.916596 151.933317 L 130.02314 152.025485 L 130.236228 152.515873 L 130.342772 152.458371 L 131.195125 153.852337 L 131.301669 153.951307 L 131.514758 154.439586 L 131.621302 154.367859 L 132.36711 155.368407 L 132.580199 155.51328 L 132.899831 155.591429 L 133.006375 155.389509 L 133.112919 155.489988 L 133.326007 155.342957 L 133.64564 155.323818 L 134.071816 156.032009 L 134.391449 156.464905 L 134.497993 156.42353 L 134.604537 156.222828 L 134.817625 156.611137 L 135.030713 156.707206 L 135.243801 156.629887 L 135.776522 157.237266 L 135.883066 157.091818 L 135.98961 157.183147 L 136.096154 157.111322 L 136.202698 157.350505 L 136.415787 157.224194 L 136.628875 157.539486 L 136.841963 157.455571 L 137.161595 157.931297 L 137.26814 157.866695 L 137.587772 158.188963 L 137.80086 158.135738 L 138.013948 158.324371 L 138.120492 158.417317 L 138.227037 158.286329 L 138.440125 158.579404 L 138.546669 158.733771 L 138.653213 158.5929 L 138.759757 158.682321 L 138.866301 158.621702 L 139.079389 158.701532 L 139.292478 158.705376 L 140.251375 159.039183 L 140.357919 159.082299 L 140.571007 158.758719 L 140.890639 158.982568 L 141.210272 158.9522 L 141.42336 158.92919 L 141.636448 159.160691 L 141.742992 159.089795 L 141.849536 159.322553 L 142.062625 159.191814 L 142.382257 159.333129 L 142.808433 159.021951 L 143.128066 158.920361 L 143.23461 158.941494 L 143.447698 159.202264 L 143.873874 159.742149 L 143.980419 159.471716 L 144.193507 159.611256 L 144.939316 158.705968 L 145.258948 158.875634 L 145.365492 158.829752 L 145.685124 159.000183 L 145.791668 158.838051 L 145.898213 159.010322 L 146.004757 158.910232 L 146.217845 159.125628 L 146.324389 159.12132 L 146.85711 159.903249 L 146.963654 159.803512 L 147.070198 160.046455 L 147.176742 159.899468 L 147.38983 160.136201 L 147.496374 160.08666 L 147.602918 160.18191 L 147.709462 160.082165 L 148.135639 160.660457 L 148.455271 160.942828 L 148.668359 161.155282 L 148.774904 161.121411 L 148.987992 161.308791 L 149.20108 161.310654 L 149.520712 161.176475 L 149.840345 161.642175 L 149.946889 161.379549 L 150.053433 161.57529 L 150.159977 161.45343 L 150.479609 161.762464 L 150.905786 161.752675 L 151.118874 161.828447 L 151.225418 161.978137 L 151.331962 161.755257 L 151.54505 161.783186 L 151.758139 161.966102 L 151.971227 162.058338 L 152.077771 162.172758 L 152.184315 162.025985 L 152.397403 162.239529 L 152.717036 162.607313 L 153.143212 163.329627 L 153.3563 163.977728 L 153.462844 164.214794 L 153.675933 164.179646 L 153.889021 164.580643 L 153.995565 164.532993 L 154.208653 164.681451 L 154.63483 164.699037 L 154.741374 164.817955 L 155.593727 164.267392 L 155.700271 164.291184 L 155.806815 164.122043 L 156.126447 164.454488 L 156.232991 164.446248 L 156.339535 164.275819 L 156.44608 164.330634 L 156.765712 163.763364 L 156.872256 163.892471 L 157.191888 163.334299 L 157.298432 163.400611 L 157.404977 163.401069 L 157.511521 163.272758 L 157.724609 163.541296 L 157.831153 163.548604 L 158.044241 163.241875 L 158.150785 163.367565 L 158.470418 163.09761 L 159.003138 163.310682 L 159.109682 163.390065 L 159.216226 163.186799 L 159.535859 163.613536 L 159.748947 163.720405 L 159.855491 163.913279 L 159.962035 163.736772 L 160.281668 163.952554 L 160.388212 163.845255 L 160.494756 163.917959 L 160.707844 163.837748 L 161.240565 163.582114 L 161.347109 163.538722 L 161.453653 163.645562 L 161.986373 163.01961 L 162.41255 162.712373 L 162.625638 162.196415 L 162.732182 162.141644 L 162.94527 161.76299 L 163.051814 161.824558 L 163.371447 161.323923 L 164.2238 161.100974 L 164.330344 161.243349 L 165.289241 160.587056 L 165.608873 160.197491 L 166.03505 160.412208 L 166.780858 159.441282 L 167.313579 159.007763 L 167.526667 158.776821 L 167.633211 158.732052 L 167.846299 158.369052 L 168.059388 158.21237 L 168.272476 157.970262 L 168.37902 157.994489 L 168.592108 157.869021 L 168.698652 157.774859 L 168.911741 157.910158 L 169.018285 157.655281 L 169.231373 157.64308 L 170.083726 157.213301 L 170.19027 157.033557 L 170.403358 157.022919 L 171.042623 156.25627 L 171.681887 156.42287 L 171.894976 156.584937 L 172.00152 156.563676 L 172.53424 155.94831 L 173.173505 155.720499 L 173.280049 155.7553 L 173.493137 155.648137 L 173.599681 155.69246 L 173.919314 155.460959 L 174.025858 155.559562 L 174.238946 155.33982 L 174.558578 155.361872 L 174.665123 155.230081 L 174.878211 155.366603 L 174.984755 155.367481 L 175.091299 155.177764 L 175.304387 155.172313 L 175.517475 155.059239 L 175.730564 155.325539 L 175.943652 155.032445 L 176.050196 155.00144 L 176.15674 155.164063 L 176.796005 154.216098 L 176.902549 154.321295 L 177.115637 154.328751 L 177.222181 154.183135 L 177.541814 154.524735 L 177.861446 154.589296 L 178.181078 154.27685 L 178.500711 154.256741 L 178.713799 154.069193 L 178.926887 153.934918 L 179.353063 153.487655 L 179.566152 153.097984 L 179.672696 153.105902 L 179.992328 152.688878 L 180.098872 152.790525 L 180.205416 152.735179 L 180.418505 153.000105 L 180.525049 152.956412 L 180.631593 153.041012 L 181.057769 152.534965 L 181.483946 152.163827 L 181.59049 152.365235 L 181.697034 152.324997 L 182.016666 152.586108 L 182.549387 152.895241 L 182.655931 152.748131 L 182.762475 152.834203 L 182.975563 152.745419 L 183.188651 152.73373 L 183.295196 152.759906 L 183.614828 152.478268 L 184.467181 151.843877 L 184.893357 151.986538 L 185.21299 152.077012 L 185.639166 152.020625 L 185.74571 151.823238 L 185.958798 151.813567 L 186.278431 151.617101 L 186.491519 151.602351 L 186.598063 151.613012 L 186.704607 151.75961 L 187.130784 151.370291 L 187.343872 151.385708 L 187.55696 151.514523 L 187.663504 151.508603 L 187.770048 151.32473 L 188.089681 151.561756 L 188.409313 151.615923 L 188.622401 151.350911 L 188.728945 151.491541 L 189.048578 151.271592 L 189.261666 151.208268 L 189.474754 151.100452 L 189.687842 151.308847 L 189.90093 150.981196 L 190.327107 150.731076 L 190.753283 151.254544 L 190.859827 151.221266 L 191.392548 151.904785 L 191.925269 151.487212 L 192.031813 151.582444 L 192.351445 151.288882 L 192.457989 151.241376 L 192.671077 151.060804 L 192.884166 151.022243 L 193.097254 150.71584 L 193.310342 150.420072 L 194.482327 150.072861 L 194.695415 150.159258 L 194.80196 150.23601 L 194.908504 150.096774 L 195.121592 150.176426 L 195.33468 150.205907 L 195.441224 150.204799 L 196.400121 148.997956 L 196.613209 148.895226 L 196.932842 149.08346 L 197.14593 149.068885 L 197.252474 149.092647 L 197.359018 148.881452 L 197.465562 149.086934 L 198.104827 148.284298 L 198.211371 148.235482 L 198.317915 148.021244 L 198.424459 148.075467 L 198.637548 147.739079 L 198.744092 147.720826 L 199.063724 147.215758 L 199.702989 145.962112 L 200.129165 144.841179 L 200.342253 144.565517 L 200.555342 144.69816 L 200.76843 144.389282 L 200.981518 144.382257 L 201.30115 144.575111 L 201.940415 143.477016 L 202.153503 143.108948 L 202.57968 142.304046 L 202.792768 142.240854 L 202.899312 142.047088 L 203.1124 142.265363 L 203.218944 142.186656 L 203.645121 142.538619 L 203.751665 142.453269 L 203.964753 142.500269 L 204.071297 142.330436 L 204.284385 142.506871 L 204.39093 142.366183 L 204.497474 142.495819 L 204.604018 142.441667 L 204.817106 142.173169 L 204.92365 142.199818 L 205.136738 142.559449 L 205.243282 142.58872 L 205.456371 142.372672 L 205.669459 142.189127 L 205.989091 142.270295 L 206.308724 141.854979 L 206.628356 142.096413 L 206.947988 141.924469 L 207.374165 142.139717 L 207.587253 142.194231 L 208.013429 142.802078 L 208.226518 142.678231 L 208.439606 142.372546 L 208.54615 142.497852 L 208.652694 142.423093 L 208.865782 142.118127 L 209.185415 142.097048 L 209.824679 142.77042 L 210.250856 142.846378 L 210.570488 143.029701 L 210.89012 142.915916 L 211.209753 143.130206 L 211.529385 142.827342 L 211.635929 142.979595 L 211.849017 142.916865 L 212.062106 142.516604 L 212.16865 142.509789 L 212.275194 142.215152 L 212.488282 142.604136 L 212.70137 142.252667 L 213.021003 142.332679 L 213.234091 142.483761 L 213.340635 142.561811 L 213.553723 142.431667 L 213.766811 142.542247 L 214.086444 142.611134 L 214.619164 142.77999 L 214.832252 142.731148 L 215.045341 142.905796 L 215.258429 142.847363 L 215.578061 142.585622 L 215.897694 142.428167 L 216.217326 141.609054 L 216.536958 141.219117 L 216.856591 140.888568 L 216.963135 140.702618 L 217.282767 141.004588 L 217.495855 140.840116 L 217.708943 140.890853 L 217.922032 140.867694 L 218.241664 141.381718 L 218.561296 141.181653 L 219.200561 141.475601 L 219.307105 141.31398 L 219.626737 141.488396 L 219.733282 141.379005 L 219.839826 141.54691 L 220.052914 141.413925 L 220.159458 141.44022 L 220.266002 141.200463 L 220.692179 141.601087 L 220.798723 141.690235 L 221.118355 141.23861 L 221.224899 141.19471 L 221.437987 141.452738 L 221.864164 141.109761 L 222.077252 141.29759 L 222.183796 141.479751 L 222.503428 141.133047 L 222.716517 141.262761 L 222.823061 141.50139 L 223.036149 141.445666 L 223.462325 141.934163 L 223.781958 142.433718 L 223.995046 142.545021 L 224.208134 142.917196 L 224.421222 142.81805 L 224.527767 142.89814 L 224.740855 142.868877 L 224.953943 142.734612 L 225.167031 142.872553 L 225.273575 142.719115 L 225.486664 143.009731 L 225.806296 142.932199 L 226.019384 143.174186 L 226.125928 143.124023 L 226.232472 142.885317 L 226.445561 143.074264 L 226.552105 143.086628 L 226.978281 143.650145 L 227.084825 143.54777 L 227.511002 143.886032 L 227.72409 143.941646 L 227.937178 143.662624 L 228.25681 144.141886 L 228.469899 144.585302 L 228.789531 144.372517 L 229.002619 144.645831 L 229.109163 144.491299 L 229.215707 144.614387 L 229.428796 143.901153 L 229.748428 143.892633 L 229.961516 144.234026 L 230.281149 144.430288 L 230.494237 144.978236 L 230.600781 145.049539 L 230.813869 145.25881 L 230.920413 145.191136 L 231.34659 145.441606 L 231.453134 145.406576 L 231.559678 145.51976 L 231.772766 145.295429 L 231.87931 145.438792 L 232.092398 145.93903 L 232.198943 146.01122 L 232.412031 146.348849 L 232.625119 146.666244 L 232.838207 147.284205 L 232.944751 147.53608 L 233.370928 147.266531 L 233.584016 147.282596 L 233.69056 147.257357 L 234.010192 146.685328 L 234.223281 146.693533 L 234.329825 146.41813 L 234.436369 146.523254 L 234.649457 146.238755 L 234.756001 146.158131 L 234.969089 146.30411 L 235.182178 146.018278 L 235.608354 146.662202 L 235.821442 146.549719 L 235.927986 146.518159 L 236.141075 146.654152 L 236.460707 145.925563 L 236.567251 145.915353 L 236.780339 146.230893 L 236.886883 146.194221 L 236.993428 146.343912 L 237.206516 146.335794 L 237.419604 146.659486 L 237.84578 146.049766 L 238.058869 146.12354 L 238.378501 146.164443 L 238.485045 146.264032 L 238.591589 146.730545 L 238.698133 146.553835 L 239.337398 147.471033 L 239.763574 147.735948 L 239.870119 147.488327 L 239.976663 147.599958 L 240.296295 147.470532 L 240.615927 147.751195 L 240.722471 147.489907 L 241.042104 148.262343 L 241.255192 148.516552 L 241.894457 149.292885 L 242.001001 149.19753 L 242.214089 149.49692 L 242.427177 149.545395 L 242.533721 149.550195 L 242.640265 149.895197 L 242.74681 149.58076 L 242.853354 149.636909 L 242.959898 149.531142 L 243.172986 149.753918 L 243.386074 149.741973 L 244.451515 151.669151 L 244.558059 151.635283 L 244.664604 151.467064 L 244.877692 151.737071 L 245.09078 151.964851 L 245.303868 151.455187 L 245.410412 151.412146 L 245.730045 151.729207 L 245.943133 151.577808 L 246.049677 151.644263 L 246.156221 151.509005 L 246.262765 151.71248 L 246.369309 151.621692 L 246.475853 151.741459 L 246.688942 151.530934 L 246.90203 151.972686 L 247.221662 152.381659 L 247.328206 152.170652 L 247.647839 152.585007 L 247.967471 152.250226 L 248.287103 151.775125 L 248.393647 151.95605 L 248.500192 151.904859 L 248.606736 151.688251 L 249.032912 152.150574 L 249.139456 152.024937 L 249.246 151.737585 L 249.352544 151.846566 L 249.778721 151.615467 L 249.885265 151.633695 L 250.098353 151.260927 L 250.204897 151.395996 L 250.311441 151.417418 L 250.52453 150.99299 L 250.737618 151.029235 L 250.844162 151.059462 L 251.05725 150.786044 L 251.270338 150.969525 L 251.376883 150.856833 L 251.803059 151.610553 L 251.909603 151.461086 L 252.016147 151.650266 L 252.229235 151.388722 L 252.442324 151.603058 L 252.548868 151.450713 L 252.655412 151.60323 L 252.8685 151.251824 L 253.081588 151.496051 L 253.294677 151.661494 L 253.401221 151.581586 L 253.720853 151.831503 L 253.827397 152.235597 L 254.040485 151.990385 L 254.147029 151.985221 L 254.466662 152.336508 L 254.786294 152.50062 L 254.892838 152.400474 L 255.105926 152.70911 L 255.532103 152.036332 L 255.638647 152.189568 L 255.851735 151.902618 L 256.064823 151.805181 L 256.597544 151.514784 L 256.704088 151.214556 L 257.02372 151.686625 L 257.130265 151.577592 L 257.343353 151.745135 L 257.769529 152.598231 L 257.876073 152.513906 L 257.982617 152.25866 L 258.089162 152.312794 L 258.30225 152.079805 L 258.408794 152.036644 L 258.728426 151.384735 L 258.83497 151.398841 L 258.941514 151.297008 L 259.048059 151.512028 L 259.154603 151.280402 L 259.687323 152.011637 L 259.793867 151.924841 L 260.1135 151.680079 L 260.326588 151.871936 L 260.433132 151.6618 L 260.539676 151.77513 L 260.64622 151.640596 L 260.752764 151.723508 L 260.859308 151.958905 L 261.072397 151.841548 L 261.178941 152.075034 L 261.285485 151.848259 L 261.392029 151.897509 L 261.498573 151.803576 L 261.711661 152.010674 L 261.92475 151.638571 L 262.031294 151.869255 L 262.45747 151.491558 L 262.564014 151.799574 L 262.777102 151.261268 L 262.883647 151.405302 L 263.203279 151.10802 L 263.309823 150.946189 L 263.522911 151.062198 L 263.735999 150.723286 L 264.162176 150.478875 L 264.375264 150.972412 L 264.588352 150.894464 L 265.227617 151.87992 L 265.334161 151.603371 L 265.547249 152.070276 L 265.653793 151.999738 L 265.866882 152.183526 L 266.07997 152.331666 L 266.293058 152.044835 L 266.399602 152.160295 L 266.506146 152.067659 L 266.825779 152.257466 L 267.145411 151.797314 L 267.358499 151.984994 L 267.571587 151.85804 L 267.89122 151.424978 L 268.637029 151.605784 L 268.743573 151.519703 L 268.850117 151.590756 L 268.956661 151.374269 L 269.169749 151.466622 L 269.489381 150.880157 L 269.809014 149.869595 L 269.915558 149.928429 L 270.128646 150.114932 L 270.23519 150.087278 L 270.448278 150.391072 L 270.554823 150.27653 L 270.874455 150.688518 L 270.980999 150.661748 L 271.087543 150.831408 L 271.833352 150.66054 L 271.939896 150.998514 L 272.152984 150.852155 L 272.259528 150.854906 L 272.366072 150.977793 L 272.472617 150.819567 L 272.685705 150.91755 L 273.111881 150.468619 L 273.431514 149.932685 L 273.538058 149.939991 L 273.751146 149.761914 L 273.964234 149.543843 L 274.177322 150.00667 L 275.029675 149.051583 L 275.242763 148.226758 L 275.455852 148.057442 L 275.562396 147.812204 L 275.775484 147.811318 L 275.988572 147.387757 L 276.308205 146.979288 L 276.840925 146.104369 L 277.160557 145.856626 L 277.267102 145.813092 L 277.373646 145.604339 L 277.48019 145.640459 L 277.586734 145.93146 L 278.01291 145.752684 L 278.332543 145.852359 L 278.439087 146.077142 L 278.865263 145.501206 L 278.971807 145.567248 L 279.29144 145.064474 L 279.504528 145.201001 L 279.611072 145.191735 L 279.717616 145.303592 L 279.82416 145.202962 L 280.037248 145.510898 L 280.356881 145.755067 L 280.676513 145.604527 L 280.783057 145.752053 L 281.10269 145.400292 L 281.422322 145.72163 L 281.528866 145.67194 L 281.63541 145.894952 L 281.848498 145.778011 L 282.168131 146.354177 L 282.594307 147.077829 L 283.127028 148.646408 L 283.233572 148.763095 L 283.553204 149.392957 L 283.872836 149.98085 L 284.512101 151.646409 L 285.25791 153.375603 L 286.003719 155.478158 L 286.216807 155.574397 L 286.323351 155.530413 L 286.429895 155.650901 L 286.536439 155.40863 L 286.962616 155.744729 L 287.175704 155.983671 L 287.921513 156.800292 L 288.241145 156.445702 L 289.306586 156.834163 L 289.732763 156.576649 L 290.265483 156.750563 L 290.478571 157.045476 L 290.585115 156.978542 L 290.904748 157.280099 L 291.544012 156.735669 L 291.863645 156.864149 L 291.970189 156.645709 L 292.289821 156.930634 L 292.502909 157.194301 L 292.715998 157.286458 L 293.03563 157.555684 L 293.248718 157.846528 L 293.461806 157.667141 L 293.674895 157.639493 L 294.101071 157.830563 L 294.314159 157.393069 L 294.420703 157.450526 L 294.633792 157.276589 L 294.84688 157.177972 L 294.953424 156.884245 L 295.486145 157.230415 L 296.018865 157.861199 L 296.231953 157.602245 L 296.338497 157.806811 L 296.764674 157.501198 L 296.977762 157.389269 L 297.19085 157.371319 L 297.403939 157.563462 L 297.936659 157.772184 L 298.256291 157.869194 L 298.46938 157.587771 L 298.575924 157.703774 L 299.321733 157.164475 L 299.428277 157.214386 L 299.641365 157.025957 L 300.067541 157.349558 L 300.387174 157.234176 L 300.600262 157.322783 L 301.239527 157.082047 L 301.452615 157.166985 L 301.878791 156.74952 L 302.091879 156.786841 L 302.6246 156.941363 L 302.837688 157.129167 L 303.157321 157.311513 L 303.476953 157.219892 L 303.690041 157.205623 L 303.903129 156.986738 L 304.329306 157.502647 L 304.43585 157.527194 L 304.648938 157.326233 L 304.96857 157.64418 L 305.075115 157.574849 L 305.394747 157.150495 L 305.501291 157.149255 L 305.714379 157.357968 L 305.820923 157.249894 L 306.034012 157.48784 L 306.2471 157.462678 L 306.566732 157.845259 L 306.673276 157.890673 L 306.77982 157.789917 L 306.992909 158.009264 L 307.099453 157.895411 L 307.312541 158.02404 L 307.419085 157.806859 L 307.525629 157.883482 L 307.632173 157.747816 L 307.845261 157.968832 L 308.05835 157.948585 L 308.377982 158.349782 L 308.697614 158.44841 L 310.189232 158.044933 L 310.615408 157.602864 L 310.935041 157.738101 L 311.041585 157.56058 L 311.680849 157.900784 L 312.000482 157.344867 L 312.21357 157.263065 L 312.320114 157.231959 L 312.426658 157.40192 L 312.533202 157.342919 L 312.852835 157.619826 L 313.172467 158.354172 L 313.492099 158.465759 L 313.811732 158.463248 L 314.237908 158.285582 L 314.450996 158.233599 L 314.664085 158.066752 L 314.983717 158.174602 L 315.196805 158.13199 L 315.303349 158.214939 L 315.516437 158.027528 L 315.942614 158.313103 L 316.475334 157.964722 L 316.688423 158.27947 L 316.901511 158.343624 L 317.008055 158.099113 L 317.327687 158.285087 L 317.540776 158.303505 L 317.64732 158.06493 L 317.753864 158.16982 L 317.860408 158.061466 L 318.18004 158.199751 L 318.286584 158.105339 L 318.712761 158.253543 L 319.032393 157.979564 L 320.417467 158.22439 L 320.737099 157.84308 L 321.269819 157.897344 L 321.482908 157.769623 L 321.589452 157.863681 L 321.80254 157.872241 L 322.015628 157.815462 L 322.867981 157.142299 L 323.294158 157.10624 L 323.507246 157.18014 L 324.253055 157.088686 L 324.466143 156.740315 L 325.42504 156.813705 L 325.638128 156.657818 L 325.851216 156.427075 L 326.277393 155.972429 L 326.810113 156.09828 L 327.129746 155.77917 L 327.875554 155.794961 L 328.088643 155.809828 L 328.834451 155.492044 L 329.04754 155.240091 L 330.112981 154.876475 L 330.219525 154.954065 L 330.432613 154.87735 L 330.752245 154.927252 L 330.965334 155.171874 L 331.604598 155.086764 L 331.817686 155.119571 L 332.030775 154.854851 L 332.243863 154.800655 L 332.456951 154.728475 L 333.20276 154.426551 L 334.374745 153.264285 L 335.227098 152.880368 L 335.972907 151.829218 L 336.079451 151.874484 L 336.505627 151.447068 L 337.464524 151.366858 L 337.677613 151.366572 L 337.784157 151.30608 L 337.890701 151.395707 L 338.210333 151.003736 L 339.062686 150.091942 L 340.128127 149.702709 L 340.554304 149.163792 L 340.873936 148.638521 L 340.98048 148.59925 L 341.193568 148.263453 L 342.365553 147.125865 L 342.472098 147.20638 L 342.685186 147.062876 L 342.79173 147.221342 L 343.217906 147.065444 L 343.537539 147.014965 L 343.644083 147.029541 L 343.857171 146.817316 L 344.283347 146.696701 L 344.496436 146.903837 L 344.709524 146.632053 L 345.242244 146.505801 L 345.455333 146.702013 L 345.561877 146.659956 L 345.668421 146.763158 L 345.774965 146.657719 L 346.094597 146.803962 L 346.307686 146.497307 L 346.840406 145.436037 L 347.053494 145.106393 L 347.266583 144.738087 L 347.373127 144.890034 L 347.479671 144.614215 L 347.692759 144.657781 L 348.012391 144.486329 L 348.118935 144.236384 L 348.22548 144.33754 L 348.438568 144.053188 L 348.545112 144.283596 L 348.7582 144.111076 L 349.077832 143.921321 L 349.290921 143.727985 L 349.504009 143.496206 L 349.930185 142.670684 L 350.143274 142.511897 L 350.249818 142.474643 L 350.782538 141.611024 L 351.102171 141.330566 L 351.315259 140.906361 L 351.634891 140.620311 L 351.847979 140.655823 L 352.274156 140.201478 L 352.3807 140.173127 L 352.91342 139.396617 L 353.019965 139.403303 L 353.339597 138.789925 L 354.085406 137.859576 L 354.298494 138.041281 L 355.683567 135.940021 L 355.896656 136.038145 L 356.109744 135.984687 L 356.53592 135.590733 L 356.855553 135.781277 L 357.068641 135.703681 L 357.494817 135.990885 L 357.920994 136.066681 L 358.134082 136.034346 L 358.240626 136.028469 L 358.453714 136.155609 L 358.560258 136.13166 L 358.773347 136.525079 L 358.879891 136.363857 L 359.306067 136.796342 L 359.519155 136.81901 L 359.732244 136.788845 L 360.371508 136.688431 L 360.691141 136.913657 L 360.904229 136.880994 L 361.010773 137.007988 L 361.223861 136.769552 L 361.436949 136.991364 L 361.543493 136.773267 L 361.650038 136.810184 L 362.182758 136.387061 L 362.289302 136.522758 L 362.715479 136.094575 L 363.141655 136.263512 L 363.248199 136.553969 L 363.461287 136.249413 L 363.674376 136.413903 L 363.887464 135.98079 L 364.207096 135.778014 L 364.420184 135.609575 L 364.526729 135.667042 L 364.739817 135.346387 L 364.846361 135.616604 L 365.165993 135.162225 L 365.272537 135.279652 L 365.698714 134.83309 L 365.805258 134.779991 L 365.911802 134.551989 L 366.018346 134.60298 L 366.551067 133.867471 L 366.657611 134.048338 L 366.764155 133.99954 L 367.296875 134.437899 L 367.509964 134.380697 L 367.616508 134.420056 L 367.93614 133.84881 L 368.042684 133.694495 L 368.149228 133.74913 L 368.362317 133.454061 L 368.468861 133.558609 L 368.681949 133.285155 L 368.895037 133.372762 L 369.108125 133.243743 L 369.321214 132.758375 L 369.534302 132.64318 L 369.640846 132.623584 L 369.74739 132.427754 L 369.960478 132.486115 L 370.173566 132.652274 L 370.280111 132.816616 L 370.386655 132.733796 L 370.493199 132.970035 L 370.706287 132.992278 L 370.812831 133.285005 L 370.919375 133.012448 L 371.132463 133.124186 L 371.345552 132.953183 L 371.452096 133.016067 L 371.665184 132.750466 L 372.09136 131.992896 L 372.410993 131.060348 L 372.730625 131.079578 L 373.156802 130.905036 L 373.263346 130.950726 L 373.36989 130.751827 L 373.476434 130.896466 L 373.796066 130.393561 L 373.90261 130.732079 L 374.115699 130.458222 L 374.435331 130.207241 L 374.541875 130.291447 L 374.648419 130.124104 L 375.394228 130.51595 L 375.926948 131.325563 L 376.033493 131.236615 L 376.566213 132.131727 L 377.205478 131.348631 L 377.312022 131.36301 L 377.631654 130.74088 L 377.738198 130.951193 L 377.844742 130.733053 L 378.057831 130.896236 L 378.484007 131.084478 L 378.910184 130.917795 L 379.123272 130.419615 L 379.33636 130.327814 L 379.442904 130.461595 L 379.549448 130.394372 L 379.762536 130.607771 L 379.869081 130.282925 L 380.188713 130.695105 L 380.401801 130.850384 L 380.614889 130.521865 L 380.721433 130.69836 L 380.827978 130.534547 L 380.934522 130.678417 L 381.041066 130.560151 L 381.14761 130.847706 L 381.360698 130.62804 L 381.573786 130.689825 L 381.68033 130.917143 L 381.893419 130.667661 L 382.213051 131.068308 L 382.426139 131.503572 L 382.532683 131.340593 L 382.95886 131.881016 L 383.065404 131.954925 L 383.49158 131.557296 L 383.704669 131.857285 L 383.917757 131.768498 L 384.024301 131.896925 L 384.237389 131.679981 L 384.343933 131.787428 L 384.983198 131.319217 L 385.089742 131.330878 L 385.729007 132.280138 L 385.835551 132.187045 L 385.942095 132.250233 L 386.687904 131.765766 L 387.007536 131.873149 L 387.433712 132.402777 L 387.540257 132.324676 L 387.966433 131.405228 L 388.286065 130.496349 L 388.499154 130.034742 L 388.712242 129.908984 L 388.818786 129.969037 L 389.031874 129.836757 L 389.138418 129.782213 L 389.351506 130.05314 L 389.671139 129.486166 L 389.884227 129.633114 L 390.097315 129.514535 L 390.203859 129.747182 L 390.310403 129.386712 L 390.416948 129.488791 L 390.73658 130.360486 L 390.843124 130.197355 L 390.949668 130.277941 L 391.056212 130.198429 L 391.2693 130.649973 L 391.375845 130.636496 L 391.482389 131.135014 L 391.588933 131.107411 L 391.695477 131.126871 L 391.908565 130.98422 L 392.121653 131.400567 L 392.334742 130.944178 L 392.441286 131.272326 L 392.654374 130.739958 L 392.867462 130.6159 L 392.974006 130.790571 L 393.08055 130.568805 L 393.613271 131.023301 L 393.719815 131.207671 L 393.826359 131.064263 L 394.35908 131.425845 L 394.465624 131.372704 L 394.572168 131.154612 L 394.678712 131.428323 L 394.785256 131.384855 L 394.8918 131.494575 L 394.998344 131.401544 L 395.211433 131.530068 L 395.317977 131.304945 L 395.637609 131.463178 L 395.957241 131.243704 L 396.063785 131.383894 L 396.276874 130.995966 L 396.383418 131.158101 L 396.70305 130.789027 L 397.129227 131.309366 L 397.448859 131.81649 L 397.661947 131.953429 L 397.875035 132.267546 L 398.194668 131.923465 L 398.407756 131.641482 L 398.5143 131.614682 L 399.047021 130.871112 L 399.366653 131.391493 L 399.899373 131.270183 L 400.112462 131.549328 L 400.32555 131.131847 L 400.538638 131.046215 L 401.071359 130.709107 L 401.177903 130.906525 L 401.390991 130.896399 L 401.604079 131.059984 L 401.710623 131.004168 L 401.923712 131.429144 L 402.030256 131.59434 L 402.243344 131.394231 L 402.456432 131.346106 L 403.095697 130.624313 L 403.202241 130.995643 L 403.521873 130.647682 L 403.734961 130.235744 L 403.841506 130.129261 L 403.94805 130.256442 L 404.054594 130.185876 L 404.161138 130.346452 L 404.267682 130.152787 L 404.374226 130.204701 L 404.693858 130.678548 L 404.800403 130.396484 L 404.906947 130.461825 L 405.120035 130.215145 L 405.226579 130.085743 L 405.439667 130.374511 L 405.865844 129.927206 L 406.078932 129.940974 L 406.398564 129.37064 L 406.611652 129.463993 L 406.718197 129.593648 L 406.824741 129.4216 L 406.931285 129.63205 L 407.144373 129.379185 L 407.357461 129.563618 L 407.464005 129.325858 L 407.570549 129.363218 L 407.677094 129.219181 L 407.783638 129.304808 L 408.209814 130.007923 L 408.529446 130.206162 L 408.635991 130.183267 L 408.742535 130.386796 L 408.849079 130.329634 L 408.955623 130.092663 L 409.168711 130.325727 L 409.488343 130.131957 L 409.701432 130.173022 L 409.91452 129.938214 L 410.021064 130.333547 L 410.127608 129.932943 L 410.340696 130.011223 L 410.44724 129.792813 L 410.873417 129.94206 L 411.193049 130.383485 L 411.406137 129.928047 L 411.619226 129.941895 L 411.832314 129.957951 L 411.938858 130.025563 L 412.151946 129.65859 L 412.25849 129.484139 L 412.471579 129.715226 L 412.791211 130.017604 L 413.004299 130.01118 L 413.323931 130.438311 L 413.430476 130.618428 L 413.53702 130.295161 L 413.750108 130.252543 L 414.176284 129.503492 L 414.282828 129.062465 L 414.389373 129.101143 L 414.495917 129.021442 L 414.602461 129.395931 L 415.028637 128.554028 L 415.135181 128.593841 L 415.34827 128.341746 L 415.561358 127.963359 L 415.667902 127.681265 L 415.774446 127.722684 L 415.987534 127.99658 L 416.413711 127.878772 L 416.946431 127.153382 L 417.266064 127.009638 L 417.585696 127.257134 L 418.011872 128.47602 L 418.438049 128.975497 L 418.544593 129.077737 L 418.651137 129.423274 L 418.757681 129.337389 L 418.970769 128.6182 L 419.077313 128.668504 L 419.716578 127.554749 L 419.929666 127.379775 L 420.03621 127.461818 L 420.675475 126.936439 L 420.782019 127.054673 L 420.888563 126.994553 L 420.995107 126.806052 L 421.101652 126.920573 L 421.208196 126.674435 L 421.31474 126.7327 L 421.421284 126.572111 L 421.527828 126.803363 L 421.84746 126.430194 L 422.699813 124.822894 L 422.806357 124.889524 L 423.019446 124.666031 L 423.339078 124.433524 L 423.552166 124.170807 L 423.871798 124.197401 L 424.084887 124.082278 L 424.404519 123.944008 L 424.724151 124.135252 L 425.363416 123.373686 L 425.46996 123.357067 L 425.789592 122.897814 L 426.109225 122.691996 L 426.322313 122.861607 L 426.428857 122.698993 L 426.641945 122.817604 L 427.068122 121.643872 L 427.28121 121.231975 L 427.600842 120.448179 L 427.813931 120.023385 L 428.559739 118.90717 L 428.666283 118.984478 L 428.772828 119.072717 L 428.985916 118.650237 L 429.199004 118.347418 L 429.518636 117.540848 L 429.62518 117.376491 L 429.838269 116.614419 L 429.944813 116.757304 L 430.157901 116.332987 L 430.264445 116.297524 L 430.690622 115.746931 L 431.116798 115.394442 L 431.329886 115.178619 L 431.649519 115.023401 L 431.862607 114.679692 L 432.395327 114.53142 L 432.501871 114.528555 L 432.71496 114.773244 L 432.821504 114.754136 L 433.034592 114.54188 L 433.141136 114.554395 L 433.460768 113.795215 L 433.780401 113.497164 L 433.993489 113.774119 L 434.206577 113.965552 L 434.419665 114.386994 L 434.845842 114.443761 L 434.952386 114.274318 L 435.378562 115.073849 L 436.124371 116.391594 L 436.230915 116.195885 L 436.444004 116.318818 L 436.550548 116.314869 L 436.763636 116.543599 L 436.87018 116.666903 L 438.255253 120.561295 L 438.361798 120.723765 L 438.894518 122.54816 L 439.001062 122.66585 L 439.21415 123.145451 L 439.533783 123.701056 L 439.640327 123.727528 L 439.853415 123.896566 L 440.173047 123.751806 L 440.386136 124.059083 L 441.0254 124.717005 L 441.238489 124.961137 L 441.451577 124.848978 L 441.771209 124.823996 L 442.090841 125.210059 L 442.197386 125.31161 L 442.517018 125.832288 L 442.943194 126.247031 L 443.156283 126.186222 L 443.369371 126.295037 L 443.475915 126.262667 L 443.795547 126.874172 L 444.008635 126.796675 L 444.328268 127.361454 L 444.541356 127.309068 L 445.500253 127.472979 L 445.819885 127.868561 L 445.926429 127.821191 L 446.139518 128.069049 L 446.352606 127.994799 L 447.418047 128.629944 L 448.590032 128.027976 L 449.122753 127.458509 L 449.442385 127.528626 L 449.655473 127.405784 L 450.294738 127.949445 L 450.401282 127.834126 L 450.720914 128.223598 L 450.934003 128.193153 L 451.360179 128.275513 L 451.8929 128.813998 L 452.105988 128.632979 L 452.532164 128.785581 L 452.745253 128.617996 L 452.851797 128.605056 L 453.064885 129.084525 L 453.171429 129.001804 L 453.597605 129.068494 L 453.70415 129.256194 L 454.130326 128.97858 L 454.449958 129.202999 L 454.556502 129.083232 L 454.663047 129.222547 L 454.769591 129.153243 L 455.195767 129.483123 L 455.728488 129.415778 L 456.04812 129.751301 L 456.474296 129.998388 L 456.793929 130.291141 L 457.007017 130.139498 L 457.539738 130.078473 L 457.752826 129.93944 L 457.965914 130.111032 L 458.179002 130.079812 L 458.39209 130.240339 L 459.137899 130.7789 L 459.67062 131.384121 L 459.777164 131.363827 L 459.990252 131.534554 L 460.20334 131.596795 L 460.629517 131.417607 L 460.736061 131.294502 L 460.842605 131.483693 L 461.055693 131.206751 L 461.801502 131.170955 L 461.908046 130.956032 L 463.080031 131.386945 L 463.506208 131.270007 L 463.612752 131.515381 L 463.932384 131.286265 L 464.145472 131.360752 L 464.252017 131.503208 L 464.358561 131.399985 L 464.465105 131.508542 L 464.678193 131.29829 L 464.891281 131.404724 L 466.169811 130.926165 L 466.489443 131.088613 L 466.915619 131.483114 L 467.235252 131.290307 L 467.874516 130.363413 L 468.087605 130.091096 L 468.300693 129.806887 L 468.407237 129.959038 L 468.620325 129.911407 L 468.726869 130.002755 L 469.046502 129.800572 L 469.25959 129.989808 L 469.366134 129.936193 L 469.579222 129.640453 L 469.79231 129.716479 L 470.325031 129.446952 L 470.644663 129.617245 L 470.857751 129.366315 L 471.177384 129.428218 L 471.710104 129.045523 L 472.349369 128.512237 L 472.455913 128.566194 L 472.775545 128.064876 L 472.88209 128.140591 L 472.988634 127.978747 L 473.095178 128.062 L 473.521354 127.712673 L 474.160619 127.639185 L 474.373707 127.429226 L 475.119516 126.554594 L 475.332604 126.324124 L 475.652236 125.961813 L 476.078413 126.129431 L 476.398045 126.015807 L 476.504589 125.828772 L 476.611133 125.892576 L 477.03731 125.472512 L 477.463486 125.708024 L 477.57003 125.729716 L 477.783119 125.362453 L 478.528927 124.538329 L 478.635472 124.387252 L 478.742016 124.499535 L 478.955104 124.385023 L 479.061648 124.400683 L 479.274736 124.066082 L 479.487824 124.027621 L 479.594369 123.849071 L 479.700913 123.976218 L 479.914001 123.483945 L 480.446721 122.871044 L 480.65981 122.860647 L 480.766354 122.786073 L 480.979442 123.148218 L 481.618707 122.87293 L 481.938339 122.457727 L 482.151427 122.318249 L 482.257971 122.398146 L 482.47106 122.100769 L 482.897236 122.398315 L 483.110324 122.23382 L 483.216868 122.273871 L 483.323412 122.173939 L 483.536501 122.254287 L 484.069221 121.888574 L 484.388854 121.487299 L 484.495398 121.500445 L 484.921574 121.078253 L 485.773927 121.421184 L 485.987015 121.586138 L 486.306648 121.358127 L 486.413192 121.393755 L 486.519736 121.55618 L 486.62628 121.345548 L 486.732824 121.420632 L 486.839368 121.250573 L 486.945912 121.342687 L 487.159 121.223095 L 487.265545 121.280542 L 487.478633 121.094061 L 487.585177 120.850293 L 487.691721 120.919668 L 488.117897 120.72841 L 488.43753 120.720793 L 488.650618 120.583598 L 488.757162 120.606757 L 489.183339 120.023594 L 489.396427 119.916878 L 489.716059 119.90842 L 489.822603 119.686391 L 490.355324 120.193136 L 490.568412 120.134297 L 490.994588 120.032559 L 491.101133 119.993386 L 491.420765 119.367232 L 492.273118 119.055512 L 493.018927 118.514176 L 493.232015 118.109424 L 493.338559 118.107277 L 494.190912 117.09527 L 494.404 116.908619 L 494.617088 116.894875 L 494.830176 116.701117 L 495.149809 116.405443 L 495.256353 116.478194 L 496.534882 114.986358 L 496.641426 115.166122 L 496.854515 115.048013 L 497.387235 114.959306 L 497.813412 114.835704 L 498.0265 114.878978 L 498.133044 114.824357 L 498.239588 114.624763 L 498.772309 114.79793 L 499.198485 114.661595 L 499.944294 113.780134 L 500.263926 113.104684 L 500.37047 113.144758 L 500.796647 112.46103 L 501.116279 112.086186 L 501.222823 112.039623 L 501.435911 111.607659 L 501.542455 111.616109 L 501.755544 111.753141 L 501.862088 111.816025 L 502.501352 111.039916 L 503.566794 108.378274 L 504.312602 107.946226 L 504.738779 108.292393 L 505.591132 108.001 L 505.80422 107.727019 L 506.230396 107.193299 L 506.33694 107.19182 L 506.550029 106.762827 L 506.763117 106.844515 L 506.869661 106.706436 L 507.082749 106.879351 L 507.189293 107.083136 L 507.402382 106.763818 L 507.61547 106.811613 L 507.935102 106.04731 L 508.041646 106.06099 L 508.254734 105.232594 L 508.361279 105.206697 L 508.574367 104.996404 L 508.680911 104.891109 L 509.000543 105.219983 L 509.107087 105.055177 L 509.320176 105.248583 L 509.42672 105.225992 L 509.746352 105.387208 L 510.385617 105.48861 L 510.598705 105.73067 L 510.918337 105.185258 L 511.024881 105.149118 L 511.23797 105.284947 L 511.451058 105.22452 L 511.664146 105.127087 L 512.196867 105.450178 L 512.623043 105.164594 L 512.729587 105.136307 L 512.836131 105.301736 L 512.942675 105.106476 L 513.155764 105.301319 L 513.368852 105.005811 L 513.688484 104.899403 L 513.901572 104.496424 L 514.008116 104.556707 L 514.540837 103.929541 L 514.647381 103.916907 L 514.753925 103.667992 L 514.967013 103.965038 L 515.286646 103.796548 L 515.499734 103.957617 L 515.606278 103.931971 L 515.819366 103.736966 L 515.92591 103.73378 L 516.032455 103.562774 L 516.245543 103.757822 L 516.565175 103.615087 L 516.671719 103.64078 L 516.884807 103.902608 L 517.310984 103.308756 L 517.524072 103.694523 L 517.630616 103.76291 L 517.843704 103.641928 L 518.269881 103.596023 L 518.376425 103.667218 L 518.482969 103.544941 L 518.802601 103.847756 L 519.01569 103.801405 L 519.335322 103.868441 L 519.441866 104.027469 L 519.54841 103.96118 L 519.868043 103.412919 L 520.294219 103.39319 L 520.613851 103.050445 L 520.720395 103.160483 L 520.933484 103.540787 L 521.146572 103.600743 L 521.35966 103.605431 L 521.572748 103.555663 L 521.679292 103.582169 L 521.785837 103.412534 L 521.892381 102.998064 L 521.998925 103.046642 L 522.425101 102.471836 L 522.531645 102.508631 L 522.744734 102.290874 L 522.957822 102.212269 L 523.277454 101.858737 L 523.810175 101.890448 L 523.916719 101.70338 L 524.236351 102.285625 L 524.342895 102.432119 L 524.555983 102.361716 L 524.769072 102.487333 L 525.088704 102.522719 L 525.195248 102.369786 L 525.408336 102.500244 L 525.621425 102.58766 L 525.727969 102.651762 L 525.941057 102.929385 L 526.047601 103.101841 L 526.473777 102.922887 L 526.899954 103.520175 L 527.32613 103.182412 L 527.539219 103.484219 L 527.858851 103.016602 L 528.178483 103.596608 L 528.285027 103.751991 L 528.498116 103.685007 L 528.711204 103.970505 L 528.924292 103.897071 L 529.13738 103.523807 L 529.243924 103.501608 L 529.563557 103.786931 L 529.670101 103.614464 L 529.989733 103.814515 L 530.202821 104.309312 L 530.522454 104.697926 L 530.628998 104.786512 L 530.735542 105.159186 L 530.842086 105.115346 L 530.94863 105.321718 L 531.161718 105.027181 L 531.587895 105.119829 L 531.907527 104.800231 L 532.120615 105.207831 L 532.333704 104.97993 L 532.546792 104.921888 L 532.75988 105.141987 L 532.866424 105.093453 L 533.079512 105.567431 L 533.399145 105.992792 L 533.505689 105.974194 L 533.718777 106.156661 L 533.931865 105.936536 L 534.144953 105.488851 L 534.251498 105.349148 L 534.57113 106.188452 L 534.784218 106.298047 L 535.10385 107.057936 L 535.316939 107.1574 L 535.530027 106.926204 L 535.636571 107.062918 L 535.956203 106.989526 L 536.275836 107.360393 L 536.595468 107.551249 L 536.702012 107.416056 L 536.9151 107.562682 L 537.021644 107.546557 L 537.128189 107.687513 L 537.234733 107.633445 L 537.341277 107.346347 L 537.554365 107.586814 L 537.767453 107.400994 L 537.980541 107.479711 L 538.087086 107.818174 L 538.19363 107.556739 L 538.406718 107.726052 L 538.619806 107.395478 L 538.939438 107.411386 L 539.045983 107.460677 L 539.152527 107.261963 L 539.472159 107.690643 L 539.791791 108.088776 L 540.00488 107.7382 L 540.217968 107.956941 L 540.324512 107.795163 L 540.5376 107.893372 L 540.644144 107.695923 L 540.750688 107.803766 L 540.857232 107.745527 L 541.176865 108.561159 L 541.283409 108.502451 L 541.389953 108.702372 L 541.496497 108.505583 L 541.709585 108.975056 L 541.816129 108.860389 L 541.922674 108.868436 L 542.135762 108.575155 L 542.455394 107.730404 L 542.561938 107.637643 L 542.881571 106.823041 L 543.094659 106.59671 L 543.201203 106.865701 L 543.414291 106.610254 L 543.627379 106.63128 L 543.947012 107.000827 L 544.1601 107.040168 L 544.266644 106.496589 L 544.373188 106.658369 L 544.479732 106.598986 L 544.586276 106.678802 L 544.799365 106.24098 L 545.012453 105.798919 L 545.225541 105.448398 L 545.438629 105.561434 L 545.545173 105.429341 L 545.758262 105.615118 L 545.97135 106.027548 L 546.077894 106.051077 L 546.50407 105.59527 L 546.610614 105.650797 L 546.823703 105.333269 L 547.249879 105.546258 L 547.569511 105.802895 L 547.676056 105.9066 L 547.889144 106.483098 L 548.102232 106.351982 L 548.208776 106.309498 L 548.421864 106.699217 L 548.741497 107.041206 L 548.741497 107.041206" style="fill:none;stroke:#2ca02c;stroke-linecap:square;" />
			</g>
			<g id="text_16">
				<text style="font-family:-apple-system,BlinkMacSystemFont,Segoe Ui,Roboto,Helvetica,Arial,sans-serif;font-size:20px;font-style:normal;font-weight:normal;text-anchor:middle;" transform="rotate(-0, 312.320114, 28.74625)" x="312.320114" y="28.74625">Grid demand simulation for February 2018		</text>
			</g>
			<g id="line2d_33">
				<path clip-path="url(#p80ca59f66e)" d="M 75.792187 169.581615 L 76.431452 169.840267 L 77.709981 170.447745 L 81.225937 170.967077 L 83.463363 170.412201 L 85.913878 169.856036 L 87.51204 169.802841 L 89.003657 169.360475 L 90.282187 169.077098 L 93.052333 168.743657 L 94.117775 168.64484 L 96.994466 168.560928 L 98.166451 168.267953 L 99.977701 167.70744 L 101.149686 167.767931 L 102.215127 167.719254 L 104.559097 167.544314 L 106.68998 167.500454 L 107.755421 167.498803 L 108.607774 167.225374 L 110.738656 166.441199 L 112.336818 165.871555 L 112.762994 165.973624 L 113.934979 166.469362 L 114.254612 166.371805 L 114.680788 165.987369 L 116.172406 164.326488 L 116.81167 164.103343 L 119.794905 163.459188 L 120.327626 163.156363 L 120.860346 162.590901 L 123.204317 159.607192 L 125.228655 157.916495 L 125.654831 157.983488 L 126.294096 158.400203 L 127.039905 158.826622 L 127.572625 158.84426 L 128.638067 158.785466 L 129.170787 159.021038 L 130.02314 159.696273 L 132.260566 161.595571 L 133.006375 161.960707 L 133.64564 162.043117 L 134.817625 161.85725 L 135.776522 161.842769 L 137.481228 161.844909 L 139.079389 161.871368 L 139.825198 161.757011 L 140.677551 161.347478 L 141.742992 160.870815 L 143.447698 160.262273 L 146.324389 158.753577 L 148.348727 158.139027 L 149.307624 157.817534 L 150.053433 157.854928 L 151.331962 157.978335 L 154.315197 157.60852 L 156.232991 156.846527 L 159.642403 156.762668 L 160.6013 156.809368 L 161.560197 156.542842 L 162.519094 156.330496 L 164.2238 156.090217 L 166.141594 155.582211 L 167.100491 155.309679 L 169.444461 154.377189 L 174.132402 153.728901 L 176.689461 153.761538 L 178.181078 154.316561 L 178.820343 154.163631 L 179.885784 153.854328 L 180.844681 153.932457 L 181.59049 153.910883 L 183.082107 153.725217 L 184.041004 154.000378 L 184.893357 154.15964 L 189.261666 154.37845 L 190.220563 154.833609 L 191.286004 155.295148 L 192.138357 155.424552 L 193.203798 155.356523 L 196.613209 154.776083 L 198.424459 154.161996 L 199.063724 153.692725 L 200.342253 152.320003 L 201.30115 151.505784 L 203.432033 150.054955 L 203.964753 150.025473 L 204.710562 150.29668 L 205.669459 150.645567 L 208.439606 151.066239 L 210.144312 151.334875 L 211.955561 152.011134 L 213.873355 152.003035 L 215.045341 152.254722 L 216.856591 152.26894 L 218.13512 152.606015 L 218.880929 152.441695 L 219.733282 152.301382 L 220.372546 152.459141 L 221.651076 152.841294 L 222.823061 153.072445 L 223.675414 153.572314 L 224.421222 153.943455 L 225.060487 153.986218 L 226.232472 153.997063 L 228.469899 154.572075 L 229.53534 154.610395 L 230.600781 154.938863 L 232.731663 155.628164 L 233.797104 155.739767 L 234.862545 155.592527 L 235.714898 155.54151 L 237.419604 155.661687 L 239.443942 155.077635 L 240.402839 155.03426 L 241.042104 154.732363 L 242.320633 154.072621 L 243.172986 153.990057 L 244.664604 153.897789 L 245.516956 153.589422 L 246.582398 153.172644 L 247.115118 153.236064 L 248.606736 153.71753 L 249.246 153.527602 L 250.311441 153.20147 L 252.016147 153.018882 L 253.081588 152.711346 L 253.614309 152.804253 L 254.786294 153.140918 L 255.319015 153.003166 L 256.704088 152.49811 L 257.449897 152.603657 L 258.83497 152.848806 L 260.539676 152.840642 L 263.842544 152.623476 L 264.694896 152.65722 L 265.866882 153.017774 L 266.932323 153.277721 L 267.571587 153.223583 L 268.317396 152.89645 L 269.276293 152.496118 L 270.022102 152.485447 L 271.407175 152.535849 L 272.792249 152.263822 L 273.538058 151.938943 L 274.070778 151.48004 L 274.816587 150.469842 L 276.627837 147.828983 L 277.373646 147.17171 L 278.119454 146.83969 L 281.422322 145.976493 L 281.848498 146.107439 L 282.274675 146.444279 L 282.913939 147.256486 L 286.749527 152.700708 L 287.175704 152.815454 L 287.814969 152.699623 L 288.454233 152.605285 L 289.093498 152.771272 L 290.158939 153.086541 L 291.011292 153.015105 L 292.076733 152.964166 L 293.142174 152.935446 L 293.887983 152.64264 L 295.912321 151.688814 L 297.297394 151.381615 L 299.108644 150.948935 L 301.346071 150.418717 L 303.583497 150.160388 L 307.738717 149.673808 L 312.000482 148.292281 L 312.639746 148.323857 L 314.450996 148.707915 L 317.008055 148.515845 L 318.925849 148.664085 L 321.482908 149.220127 L 327.023201 149.418402 L 328.301731 149.767935 L 328.940995 149.607662 L 329.899892 149.343205 L 330.432613 149.451267 L 331.604598 149.757592 L 332.137319 149.610959 L 337.038348 147.513614 L 337.997245 147.289944 L 340.234671 146.347307 L 341.087024 146.134227 L 341.726289 145.687716 L 342.79173 144.910058 L 343.430995 144.755714 L 344.922612 144.778214 L 345.988053 144.623355 L 348.545112 143.778058 L 349.290921 143.389828 L 351.208715 142.171826 L 352.487244 141.686876 L 353.339597 141.031995 L 355.044303 139.6799 L 355.790111 139.405521 L 356.642464 139.389549 L 358.773347 139.709485 L 362.289302 140.299611 L 366.231434 140.217568 L 367.616508 140.134161 L 369.534302 140.044151 L 370.386655 139.755829 L 372.410993 138.68767 L 374.648419 137.547426 L 375.18114 137.650792 L 377.205478 138.321994 L 378.270919 138.242731 L 382.426139 137.706527 L 384.024301 137.781919 L 386.155183 137.874515 L 387.220624 137.685357 L 388.286065 137.243392 L 389.458051 136.806773 L 391.375845 136.236894 L 392.334742 135.975909 L 394.252536 135.787654 L 394.998344 135.306295 L 396.916138 133.876752 L 397.448859 133.827123 L 398.620844 133.859126 L 399.153565 133.565601 L 400.538638 132.653915 L 401.390991 132.533152 L 402.243344 132.34564 L 404.374226 131.648061 L 407.250917 131.262529 L 408.635991 131.313749 L 411.938858 130.820154 L 413.110843 130.665994 L 414.495917 130.659242 L 415.028637 130.358651 L 416.307167 129.491111 L 416.946431 129.445049 L 417.905328 129.400925 L 418.544593 129.076253 L 419.823122 128.362177 L 421.101652 127.802671 L 421.84746 127.141192 L 423.765254 125.307158 L 424.511063 124.907334 L 426.215769 124.186705 L 426.855034 123.561026 L 427.494298 122.572792 L 428.346651 120.723779 L 429.731725 117.740034 L 430.584077 116.449694 L 431.329886 115.711868 L 433.780401 113.867803 L 434.52621 113.569776 L 435.165474 113.571017 L 435.698195 113.796263 L 436.337459 114.334652 L 437.083268 115.27378 L 439.853415 119.172972 L 440.599224 119.679073 L 441.558121 120.000361 L 444.11518 120.541142 L 445.180621 120.500691 L 446.45915 120.16851 L 448.80312 119.315148 L 450.188194 118.832309 L 451.147091 118.723448 L 453.171429 118.679367 L 454.556502 118.215375 L 455.089223 118.353511 L 456.261208 118.742526 L 457.007017 118.578993 L 457.646282 118.488949 L 458.072458 118.627374 L 458.818267 119.163582 L 459.67062 119.702299 L 460.309884 119.826319 L 461.055693 119.734495 L 464.038928 119.043561 L 466.595987 118.782939 L 467.44834 118.446881 L 469.25959 117.498041 L 471.07084 117.122859 L 474.267163 115.31874 L 475.758781 114.618142 L 478.742016 113.724991 L 480.979442 113.394312 L 481.725251 113.42958 L 482.577604 113.726889 L 483.536501 113.994076 L 486.093559 114.215082 L 487.265545 114.426702 L 488.97025 114.433106 L 491.314221 114.476058 L 493.125471 114.630043 L 494.617088 114.513269 L 495.469441 114.829772 L 496.321794 115.069843 L 497.919956 115.24993 L 499.83775 116.159438 L 500.690103 116.04112 L 502.927529 115.482391 L 504.099514 115.046398 L 504.738779 115.087342 L 505.697676 115.428116 L 506.763117 115.778826 L 507.402382 115.738784 L 508.14819 115.391355 L 509.000543 115.02282 L 509.639808 115.014447 L 510.492161 115.276946 L 512.516499 116.035451 L 513.795028 116.12126 L 515.180102 116.254433 L 516.245543 116.626919 L 517.630616 117.084598 L 521.146572 117.74958 L 522.318557 117.8254 L 523.490542 117.9068 L 524.342895 118.209126 L 525.301792 118.797749 L 527.113042 119.981708 L 528.391571 120.448305 L 529.243924 120.819508 L 529.776645 121.27405 L 530.628998 122.389636 L 531.481351 123.414512 L 532.227159 123.918498 L 533.505689 124.414933 L 536.275836 125.303629 L 537.873997 125.482261 L 538.72635 125.930334 L 540.111424 126.656593 L 540.857232 126.818454 L 541.603041 126.75731 L 542.881571 126.367601 L 544.266644 126.013564 L 545.758262 125.758823 L 546.717159 125.257819 L 547.889144 124.70569 L 548.741497 124.496555 L 548.741497 124.496555" style="fill:none;stroke:#ff7f0e;stroke-linecap:square;stroke-width:2;" />
			</g>
			<g id="legend_1">
				<g id="patch_3">
					<path d="M 156.090583 295.95975 L 468.549645 295.95975 Q 471.149645 295.95975 471.149645 293.35975 L 471.149645 257.812875 Q 471.149645 255.212875 468.549645 255.212875 L 156.090583 255.212875 Q 153.490583 255.212875 153.490583 257.812875 L 153.490583 293.35975 Q 153.490583 295.95975 156.090583 295.95975 z" style="fill:#ffffff;opacity:0.8;stroke:#cccccc;stroke-linejoin:miter;" />
				</g>
				<g id="line2d_34">
					<path d="M 158.690583 265.421937 L 184.690583 265.421937" style="fill:none;stroke:#ff7f0e;stroke-linecap:square;stroke-width:2;" />
				</g>
				<g id="line2d_35" />
				<g id="text_17">
					<text style="font-family:-apple-system,BlinkMacSystemFont,Segoe Ui,Roboto,Helvetica,Arial,sans-serif;font-size:13px;font-style:normal;font-weight:normal;text-anchor:start;" transform="rotate(-0, 195.090583, 269.971937)" x="195.090583" y="269.971937">Target demand</text>
				</g>
				<g id="line2d_36">
					<path d="M 158.690583 283.924594 L 184.690583 283.924594" style="fill:none;stroke:#1f77b4;stroke-linecap:square;stroke-width:2;" />
				</g>
				<g id="line2d_37" />
				<g id="text_18">
					<text style="font-family:-apple-system,BlinkMacSystemFont,Segoe Ui,Roboto,Helvetica,Arial,sans-serif;font-size:13px;font-style:normal;font-weight:normal;text-anchor:start;" transform="rotate(-0, 195.090583, 288.474594)" x="195.090583" y="288.474594">Base demand</text>
				</g>
				<g id="line2d_38">
					<path d="M 307.526364 265.421937 L 333.526364 265.421937" style="fill:none;stroke:#2ca02c;stroke-linecap:square;" />
				</g>
				<g id="line2d_39" />
				<g id="text_19">
					<text style="font-family:-apple-system,BlinkMacSystemFont,Segoe Ui,Roboto,Helvetica,Arial,sans-serif;font-size:13px;font-style:normal;font-weight:normal;text-anchor:start;" transform="rotate(-0, 343.926364, 269.971937)" x="343.926364" y="269.971937">Smart demand</text>
				</g>
				<g id="line2d_40">
					<path d="M 307.526364 283.766156 L 333.526364 283.766156" style="fill:none;stroke:#d62728;stroke-linecap:square;" />
				</g>
				<g id="line2d_41" />
				<g id="text_20">
					<text style="font-family:-apple-system,BlinkMacSystemFont,Segoe Ui,Roboto,Helvetica,Arial,sans-serif;font-size:13px;font-style:normal;font-weight:normal;text-anchor:start;" transform="rotate(-0, 343.926364, 288.316156)" x="343.926364" y="288.316156">Uncontrolled demand</text>
				</g>
			</g>
		</g>
	</g>
	<defs>
		<clipPath id="p80ca59f66e">
			<rect height="258.7135" width="473.055853" x="75.792188" y="43.74625" />
		</clipPath>
	</defs>
</svg>
